<svg width="1728" height="571" viewBox="0 0 1728 571" fill="none" xmlns="http://www.w3.org/2000/svg">
<rect x="-7" y="240" width="1742" height="331" fill="#0051C7"/>
<mask id="mask0_650_4622" style="mask-type:luminance" maskUnits="userSpaceOnUse" x="-7" y="13" width="1742" height="150">
<path d="M-7 13.0215H1735V162.276H-7V13.0215Z" fill="white"/>
</mask>
<g mask="url(#mask0_650_4622)">
<path d="M1577.57 44.375C1552.07 51.5819 1530.68 61.5175 1502.75 66.8619C1410.65 84.4984 1334.13 23.5238 1262.46 38.6015C1240.46 43.2333 1225.5 52.092 1209.96 60.1572C1194.41 68.2223 1175.56 76.2308 1151.3 77.8746C1108.07 80.814 1071.51 62.6998 1027.85 61.3232C969.934 59.4932 923.462 87.1706 865.682 84.6684C810.919 82.304 784.904 55.825 747.466 38.7148C619.834 -19.6037 474.649 43.3305 360.024 68.0118C306.16 79.6156 240.777 81.1298 184.181 72.1982C182.252 71.8905 180.342 71.5747 178.432 71.2508C90.9119 56.1651 30.8969 54.6508 -5.49023 75.834V115.609C26.3318 104.985 86.5378 96.7176 107.472 107.86C120.9 114.994 116.087 135.942 144.471 135.351C156.237 135.116 166.284 131.869 175.911 128.978C185.519 126.087 196.712 123.302 208.325 124.112C221.275 125.01 230.234 130.104 235.486 135.205C302.129 199.929 406.153 121.755 467.371 101.77C573.897 66.9996 604.611 134.63 696.219 127.359C749.701 123.108 766.395 97.5516 827.06 109.042C865.949 116.411 918.534 135.74 964.128 128.258C994.689 123.229 1026.63 107.949 1063.2 113.431C1092.98 117.901 1099 136.015 1122.21 144.275C1132.08 147.773 1145.7 149.838 1157.98 148.218C1188.49 144.185 1186.58 123.124 1215.09 117.018C1228.9 114.071 1246.95 115.439 1259.08 111.366C1273.49 106.548 1271.37 97.2277 1277.25 89.8509C1285.73 79.2107 1314.42 72.8865 1340.09 74.8461C1372.2 77.3078 1387.25 91.5919 1403.7 102.046C1452.59 131.796 1520.08 108.653 1566.89 94.1102C1603.41 82.7574 1651.89 78.6115 1695.96 83.0489C1709.69 84.4417 1722.17 86.4094 1733.47 88.863V34.0264C1679.34 29.1193 1617.45 33.1032 1577.57 44.375Z" fill="#7CABEE"/>
</g>
<mask id="mask1_650_4622" style="mask-type:luminance" maskUnits="userSpaceOnUse" x="-7" y="152" width="1742" height="170">
<path d="M-7 152.944H1735V321.445H-7V152.944Z" fill="white"/>
</mask>
<g mask="url(#mask1_650_4622)">
<path d="M1628.09 184.24C1559.27 182.996 1492.46 171.548 1423.87 173.957C1313.01 177.862 1228.96 216.456 1118.9 222.82C1025.9 228.192 936.431 209.617 853.323 193.006C770.158 176.409 673.89 160.812 584.746 172.152C537.51 178.149 499.079 191.043 456.178 200.578C331.449 228.321 157.001 224.079 54.2955 185.592C29.3116 176.237 9.16014 165.134 -5.49023 153.074V321.352H1733.47V177.258C1698.06 182.327 1660.97 184.837 1628.09 184.24Z" fill="#0051C7"/>
</g>
<mask id="mask2_650_4622" style="mask-type:luminance" maskUnits="userSpaceOnUse" x="-7" y="68" width="1742" height="164">
<path d="M-7 68.2158H1735V231.574H-7V68.2158Z" fill="white"/>
</mask>
<g mask="url(#mask2_650_4622)">
<path d="M1566.89 88.9248C1520.08 103.468 1452.59 126.611 1403.69 96.8604C1387.25 86.4064 1372.2 72.1223 1340.09 69.6607C1314.42 67.7011 1285.73 74.0253 1277.25 84.6654C1271.36 92.0423 1274.11 98.8497 1259.08 106.181C1246.95 110.254 1228.9 108.885 1215.09 111.833C1186.57 117.938 1188.48 139 1157.98 143.033C1145.7 144.652 1132.08 142.587 1122.2 139.089C1099 130.83 1092.98 112.715 1063.2 108.246C1026.62 102.763 994.687 118.044 964.126 123.072C918.532 130.554 865.947 111.225 827.058 103.857C766.393 92.3662 749.699 117.922 696.217 122.173C604.609 129.445 573.895 61.8142 467.369 96.585C406.151 116.57 302.128 194.744 235.485 130.02C230.232 124.918 221.273 119.825 208.323 118.926C196.71 118.116 185.517 120.902 175.909 123.793C166.282 126.684 156.235 129.931 144.469 130.166C116.085 130.757 120.898 109.808 107.47 102.674C86.5359 91.5322 26.3299 99.7998 -5.49219 110.424V159.004C9.15819 172.584 29.6429 182.177 54.6269 192.712C164.763 231.605 332.208 238.991 456.937 207.75C499.837 197.013 551.222 183.389 598.458 176.636C721.719 171.969 726.855 178.192 852.398 197.379C935.506 216.084 1025.9 235.604 1118.9 229.555C1228.96 222.389 1315.04 184.663 1425.9 180.266C1494.49 177.553 1559.09 189.755 1627.91 191.156C1660.79 191.828 1698.06 189.605 1733.47 183.896V83.6775C1722.16 81.224 1709.69 79.2563 1695.96 77.8635C1651.89 73.426 1603.41 77.572 1566.89 88.9248Z" fill="#1A64CF"/>
</g>
<mask id="mask3_650_4622" style="mask-type:luminance" maskUnits="userSpaceOnUse" x="9" y="0" width="395" height="104">
<path d="M9.05664 0H403.038V103.65H9.05664V0Z" fill="white"/>
</mask>
<g mask="url(#mask3_650_4622)">
<path fill-rule="evenodd" clip-rule="evenodd" d="M178.281 40.0744L178.687 43.2722C178.687 45.6112 178.121 43.2722 178.281 40.0744ZM164.966 100.884C175.197 100.953 183.151 101.543 183.151 102.27C183.151 103.071 174.218 103.65 163.091 103.65C152.047 103.65 143.114 102.992 143.114 102.27C143.114 101.685 147.017 101.611 142.63 101.611C126.875 101.611 114.12 100.663 114.12 99.5726C114.12 98.4821 127.276 98.9141 143.037 98.9141C158.793 98.9141 171.216 98.7719 171.216 99.5726C171.216 100.452 168.864 100.521 164.966 100.884ZM185.917 96.0746C196.961 96.0746 205.971 96.7331 205.971 97.5339C205.971 98.3346 196.961 98.9141 185.917 98.9141C174.79 98.9141 165.857 98.2661 165.857 97.5339C165.857 96.6646 174.866 96.0746 185.917 96.0746ZM340.057 66.7311C340.14 66.3624 339.981 65.7829 339.656 65.3404C339.002 67.1631 336.49 67.8901 336.242 67.5319C337.05 66.1411 337.546 64.8346 337.298 63.4491C342.9 64.7609 347.935 68.9121 349.969 71.2407C346.314 64.3236 338.601 61.7738 336.16 61.4103C337.05 65.3404 334.615 68.4011 329.42 67.1631C333.076 66.8734 335.187 65.4194 334.939 63.3753C332.663 65.3404 330.393 66.1411 328.04 65.4194C326.094 64.4711 324.791 63.4491 323.571 62.5008C322.68 62.1426 322.84 61.4103 324.06 62.2111C325.446 63.0856 326.737 63.9601 328.282 64.0339C328.441 61.4103 327.881 59.5928 326.413 58.4971C326.254 58.3548 326.006 58.2073 325.77 58.1336C325.275 58.0651 325.522 58.6446 325.77 59.0818C326.413 60.1723 326.826 61.1206 327.061 62.2111C326.171 60.1038 324.143 58.2758 325.357 57.6963C326.006 57.4066 326.826 57.8438 327.468 58.4971C328.365 59.5138 328.848 60.9731 328.937 63.0118C329.261 61.1206 329.096 59.7351 328.365 58.7131C329.497 58.7131 330.717 59.8826 331.048 61.4103C332.262 61.4103 333.076 60.7571 333.076 59.6613C333.642 59.5138 334.615 60.0248 335.022 60.3936C334.456 59.3716 332.262 58.4233 330.393 59.5928C330.069 58.8658 329.827 58.4233 328.771 58.0651C336.402 56.237 351.674 63.8126 353.708 73.2794L353.619 73.3584C353.213 71.9677 352.487 70.6612 351.591 69.6391C352.328 70.8772 352.888 72.1889 353.295 73.5007C352.328 74.0064 351.025 74.4489 350.211 74.4489C350.046 74.1539 349.881 73.8642 349.722 73.5744C351.102 72.2574 350.211 71.8254 348.342 71.8254C346.231 69.9289 343.224 68.0376 340.057 66.7311ZM249.835 75.9767C268.185 75.8345 284.996 75.687 300.103 75.6132C301.724 74.9547 308.387 74.0854 319.997 72.8474C323.736 72.8474 328.205 74.3067 329.91 71.5357C330.069 71.3197 330.228 71.1669 330.552 71.0247C328.205 69.9289 326.006 68.5486 324.143 66.8734C323.087 65.4931 322.515 63.9601 322.191 62.1426C322.108 61.8529 322.279 61.5526 322.922 61.3366C323.494 61.1206 324.143 61.3366 324.951 61.7054C324.143 60.6833 323.653 59.4453 323.571 57.9861C323.494 55.8788 324.06 53.1815 325.522 49.831C327.227 45.901 327.309 42.3292 326.254 39.3422C325.522 37.1559 324.143 35.2646 322.356 33.6579C320.564 32.0616 318.293 30.8236 315.776 29.9491C310.663 28.1316 304.242 27.9103 297.992 29.7278C262.99 42.1132 253.892 29.4381 241.137 11.8109C240.406 10.7995 239.598 9.7037 238.867 8.60793C227.174 -5.52118 204.679 1.39587 179.584 26.1613C180.232 26.5986 181.129 27.4731 181.04 28.1316L181.364 28.4898L182.668 26.1613C183.806 26.5986 184.944 27.1096 185.999 27.6206C186.158 27.7628 186.241 27.9841 186.241 28.1316C186.241 28.3423 186.082 28.4213 185.834 28.4898L182.585 26.8883L181.612 28.7796C182.42 29.5803 182.343 29.8806 181.288 29.5118C180.804 29.5118 180.48 29.3696 180.309 29.2221C180.067 29.1483 179.908 29.0008 179.825 28.8586C179.749 28.6373 179.66 28.4898 179.749 28.3423C179.501 28.5636 179.424 28.9324 179.66 29.4381C179.424 29.5118 179.094 29.5803 178.77 29.5118C178.121 29.2221 177.714 28.7796 177.714 28.2001C177.473 28.7796 177.797 29.3696 178.687 29.8806C179.336 30.3126 179.501 30.8974 179.012 31.6191C179.336 32.2776 179.012 33.1574 178.121 34.2479C178.528 33.0784 178.605 32.2091 178.446 31.6981C178.281 32.7886 177.956 33.6684 177.549 34.3164C178.198 34.4639 178.605 34.7589 178.77 35.1171L179.094 38.1042C179.336 40.3642 179.094 41.9657 179.584 44.2204C179.66 47.65 175.922 48.809 172.52 47.7185C170.892 47.2127 169.265 46.5542 168.368 45.6112C163.663 40.6539 160.903 37.8144 160.332 41.0912C159.683 43.8622 158.545 48.7405 157.737 50.7055C170.892 49.8995 179.584 50.4895 183.971 51.2165C194.767 54.567 149.128 59.0081 130.365 61.1943C138.161 61.4103 210.764 56.8956 188.352 51.069C192.491 50.7793 259.658 48.5192 276.711 47.571C277.772 47.5025 285.237 47.4287 281.906 49.32C279.883 50.4895 273.869 51.7275 268.668 52.4493C239.115 56.3161 160.579 64.3236 145.142 66.6521C164.07 64.9031 276.304 56.8271 284.754 50.9215C285.161 61.4103 257.547 72.0467 249.835 75.9767ZM325.198 61.8529C325.605 61.9951 326.094 62.2111 326.578 62.3533C326.006 60.9731 324.715 59.9563 324.55 58.4233C324.467 57.6226 325.275 57.0378 327.716 57.7701C333.235 56.5268 339.892 58.3548 345.989 62.2848C347.121 63.0118 349.48 61.3366 349.48 61.3366C350.376 60.7571 351.432 60.3936 352.487 60.4621H352.646L352.564 60.6148C352.487 60.8256 352.405 61.1206 352.328 61.3366L352.812 61.4841L352.24 61.9213C352.24 62.1426 352.157 62.3533 352.157 62.5746L352.564 62.7221L352.08 63.2331C352.08 63.5229 352.08 63.8126 352.157 64.1814L352.487 64.2499L352.157 64.6134C352.24 64.9821 352.328 65.4194 352.405 65.8514C352.647 66.8734 352.971 67.8901 353.295 68.9121C353.708 70.3714 354.026 71.6094 354.268 72.8474C354.923 72.1889 357.841 71.5357 354.516 70.6612C359.062 69.1281 359.144 73.3584 362.311 72.8474C368.402 71.8254 373.844 74.9547 378.314 75.1075C386.516 75.0284 403.569 74.2277 402.92 75.6132C402.266 76.9987 384.157 78.595 377.742 78.7425C376.439 78.7425 375.307 78.8162 374.169 78.8162C371.085 79.106 367.264 79.3272 362.8 79.617C361.255 79.9857 362.8 80.4915 367.347 81.0762C368.809 81.2922 378.798 83.115 362.718 83.9158C355.73 84.0633 345.099 85.1538 341.52 85.5225C335.759 86.102 335.836 84.9325 337.87 83.9895C336.891 83.9895 335.918 83.9895 334.863 83.9895C333.884 83.9895 332.911 83.9895 332.02 83.9895C332.663 84.1318 333.159 84.353 333.159 84.569C333.159 84.9325 331.855 85.1538 330.316 85.1538C328.771 85.08 327.468 84.7218 327.468 84.353C327.468 84.2108 327.716 84.0633 328.205 83.9158C325.116 83.842 322.999 83.6208 322.999 83.4048C322.999 83.0413 328.282 82.8253 334.863 82.8253C337.457 82.8253 339.816 82.8253 341.767 82.8938H341.844C346.39 82.4618 351.674 81.1447 337.215 82.0245C333.235 82.2405 329.172 81.4397 322.032 82.3143C316.666 82.4618 314.313 81.6557 314.714 80.7812C265.991 81.582 259.01 82.3143 293.77 82.8938C299.855 83.0413 341.844 84.2793 274.276 85.591C244.793 86.0283 200.457 87.4085 185.427 87.8511C149.452 89.01 167.478 86.102 186.807 85.5173C205.971 84.9325 227.906 83.5523 167.236 84.9325C150.59 85.3013 133.449 84.7218 103.566 85.8123C62.0601 86.5393 62.7146 83.6208 102.994 83.115C151.723 81.5135 148.073 80.2755 99.2613 81.0762C-8.26176 82.0245 -18.6573 81.2922 64.2595 78.4527C59.3064 78.2367 54.9194 78.0155 51.4287 77.652C49.8838 77.5045 40.4612 70.0764 57.8382 63.8126C68.0746 60.1038 106.732 55.6575 121.438 53.9875L122.653 54.8568L122.081 37.7459C122.323 36.0654 123.461 35.1962 125.253 35.0486L141.575 37.8882C143.603 38.2464 144.01 38.3992 144.493 40.5064C144.741 41.6759 144.983 43.3512 145.148 45.822C145.39 43.2775 145.472 41.3124 145.39 39.9269C145.313 37.2349 145.225 37.3034 142.548 36.8661L132.641 35.1962C132.235 32.6411 133.862 28.3423 137.919 25.7926C136.622 27.9841 136.704 29.8016 136.94 32.4989C137.995 26.3036 140.437 20.9143 145.714 21.283C146.604 20.2663 147.176 19.6078 147.424 19.3865C134.994 18.2275 141.168 13.56 146.604 12.3957C147.825 9.26118 147.748 6.42166 151.481 5.77368C153.026 5.4734 153.999 5.40491 156.269 5.55242C155.213 5.55242 154.977 7.08017 151.563 7.51216C154.812 7.73342 156.11 5.26267 158.545 6.42166C160.332 7.36992 161.387 9.40868 161.552 12.5432C161.635 11.2315 161.711 10.652 161.711 10.7995C172.272 11.9585 170.485 17.058 161.475 18.807C160.821 20.9143 160.007 22.6633 157.572 22.6633C155.213 22.6633 160.255 26.0138 161.635 26.7408C163.339 27.5416 167.236 29.9491 169.76 34.2479L175.438 27.8419L174.383 27.1833C174.141 26.3826 174.306 25.6503 174.79 25.0708C175.279 24.4861 176.01 24.1963 176.818 24.1963L178.033 25.0708C210.281 -5.58966 230.506 -4.35166 239.433 9.11894C240.005 9.91969 240.571 10.7204 241.226 11.5212C253.892 29.1483 262.99 41.7444 297.909 29.3696C304.242 27.5416 310.663 27.8419 315.776 29.5803C318.376 30.4601 320.564 31.7719 322.439 33.3681C324.219 34.9749 325.605 36.8661 326.413 39.0524C327.468 42.1132 327.386 45.6797 325.682 49.6888C324.219 53.0393 323.571 55.7313 323.736 57.7701C323.736 59.5928 324.302 60.8256 325.198 61.8529ZM336.325 73.1372L336.974 73.2794C337.215 73.3584 337.546 73.4269 337.781 73.5007C337.781 73.5007 337.781 73.5744 337.781 73.6482C336.077 73.9379 334.939 74.0854 334.939 73.9379C334.939 73.5744 335.435 73.3584 336.325 73.1372ZM340.871 73.0634C340.789 72.8474 340.789 72.6262 340.712 72.4102C340.789 72.6262 340.871 72.8474 340.871 73.0634ZM192.008 90.248C240.813 90.248 280.367 91.1278 280.367 92.2868C280.367 93.4563 240.813 94.3256 192.008 94.3256C143.202 94.3256 103.648 93.4563 103.648 92.2868C103.648 91.1278 143.202 90.248 192.008 90.248ZM377.418 81.4398C378.963 81.5135 380.266 81.877 380.266 82.2405C380.266 82.604 378.963 82.82 377.418 82.82C375.879 82.7515 374.576 82.3827 374.576 82.0245C374.576 81.6557 375.879 81.366 377.418 81.4398ZM351.992 64.4711C351.025 64.4711 350.536 65.2719 350.046 65.6354C350.376 65.9304 350.453 65.9989 350.453 65.9989C350.86 65.7829 351.102 64.7609 351.992 64.4711ZM351.833 63.0118C350.618 62.9434 349.804 64.3236 348.991 64.6924C349.321 64.9821 349.557 65.1244 349.557 65.1244C349.881 64.8346 350.701 63.3754 351.833 63.0118ZM351.756 61.7054C350.701 61.7054 348.826 63.0118 347.693 63.5229C348.177 63.9601 348.425 64.1814 348.425 64.1814C348.991 63.6704 350.211 61.9951 351.756 61.7054ZM337.215 72.3364C333.318 70.9509 330.552 70.5189 326.094 67.2369C328.441 68.8384 330.641 69.6391 332.828 69.6391C334.055 70.5874 335.511 71.5357 337.215 72.3364ZM331.773 60.2461C331.531 60.5358 331.124 60.5358 330.882 60.3146C330.882 60.6043 331.048 60.8256 331.289 60.9731C332.02 61.4103 333.076 60.1038 332.345 59.6613C332.103 59.5138 331.773 59.5138 331.448 59.5928C331.855 59.6613 332.02 60.0248 331.773 60.2461ZM50.0489 83.2625C56.5469 83.2625 61.9009 83.5523 61.9009 83.842C61.9009 84.1318 56.6235 84.4215 50.0489 84.4215C43.4684 84.4215 38.1851 84.1318 38.1851 83.842C38.1851 83.5523 43.4684 83.2625 50.0489 83.2625ZM138.485 86.829C144.989 86.829 150.343 87.1188 150.343 87.4085C150.343 87.7035 145.065 87.9933 138.485 87.9933C131.91 87.9933 126.633 87.7035 126.633 87.4085C126.633 87.1188 131.91 86.829 138.485 86.829ZM171.14 35.7756C171.14 35.7756 174.465 39.9269 174.79 40.5064C174.465 39.3422 173.251 37.5984 172.679 36.9399C173.734 36.5026 173.575 36.5027 173.899 34.9749C174.631 34.1689 175.521 33.8106 176.653 33.8791C175.686 33.5156 174.707 33.6579 173.811 34.2479C173.899 33.4471 173.899 33.0099 173.899 33.0099C173.003 34.1004 172.03 35.0486 171.14 35.7756ZM162.855 12.1797C163.174 14.798 159.848 16.036 152.867 16.036C158.545 15.5987 161.876 14.287 162.855 12.1797Z" fill="#7BAAEE"/>
</g>
</svg>
