<svg width="1634" height="1634" viewBox="0 0 1634 1634" fill="none" xmlns="http://www.w3.org/2000/svg">
<circle cx="817" cy="817" r="817" fill="black"/>
<path d="M555.697 395.495C510.128 424.033 473.827 454.596 441.03 492.071C362.108 582.334 318.789 695.434 317.273 814.877C315.765 937.439 359.549 1056.52 440.135 1148.78C485.914 1201.18 543.644 1244.31 606.286 1273C630.344 1283.99 651.208 1291.75 677.04 1299.22C697.588 1305.06 707.783 1307.47 726.961 1310.93C764.3 1317.61 794.211 1319.75 831.505 1318.36C875.443 1316.82 911.304 1311.16 952.629 1299.18C977.66 1291.87 1009.09 1280.84 1028.79 1272.25C1051.19 1262.6 1048.99 1263.71 1048.18 1262.07C1047.67 1260.98 1047.76 1260.85 1048.38 1261.56C1049.36 1262.63 1048.55 1263.06 1065.83 1252.66C1124.41 1217.39 1168.31 1176.62 1205.65 1122.83C1234.44 1081.36 1255.4 1037.72 1264.97 999.217C1281.75 931.737 1275.72 864.44 1247.16 800.06C1241.82 787.978 1225.99 760.108 1218.79 750.073C1197.95 720.92 1174.93 697.509 1147.62 677.707C1100.14 643.286 1044.65 624.254 984.055 621.367C972.631 620.829 944.999 621.866 932.506 623.348C889.408 628.36 840.149 643.438 810.41 660.835C799.899 667.011 795.878 670.231 789.23 677.918C769.863 700.267 763.784 731.915 773.293 760.402C774.827 764.857 776.755 768.859 780.559 775.288C784.966 782.831 786.714 785.168 792.592 791.434C824.079 825.153 869.651 846.433 928.314 854.773C949.432 857.827 973.068 858.876 998.941 857.992C1021.07 857.295 1029.65 856.571 1064.61 852.363C1106.67 847.353 1120.01 846.693 1140.27 848.452C1164.1 850.598 1197.96 865.489 1211.47 879.791C1215.82 884.406 1221.08 894.127 1222.54 900.223C1224.74 909.446 1224.73 921.547 1222.59 933.276C1221.83 937.051 1221.47 940.371 1221.61 940.619C1221.8 940.833 1222.05 941.738 1222.21 942.616C1222.44 943.931 1222.2 944.223 1220.72 944.461C1219.75 944.587 1219 944.832 1219.1 945.018C1219.24 945.266 1218.61 945.287 1217.82 945.155C1216.9 944.933 1216.65 945.068 1217.13 945.367C1217.8 945.723 1217.38 946.115 1215.64 946.897C1213.59 947.847 1213.5 947.976 1214.89 948.182C1216.28 948.388 1216.26 948.484 1214.46 949.457C1212.67 950.429 1212.55 950.654 1213.74 951.371C1215.28 952.454 1214.85 953.572 1212.6 954.15C1211.75 954.367 1212.77 954.46 1214.84 954.297L1218.74 954.105L1216.9 955.584C1215.86 956.469 1214.04 957.695 1212.83 958.428L1210.64 959.697L1213.83 958.931L1217.05 958.226L1214.94 960.249C1213.81 961.42 1212.13 962.736 1211.2 963.24C1210.27 963.743 1209.51 964.556 1209.46 965.061C1209.42 965.724 1210.42 965.345 1212.98 963.717C1216.37 961.557 1216.59 961.518 1216.51 963.001C1216.42 964.895 1214.19 968.907 1211.98 970.902C1210.55 972.241 1210.71 972.236 1213.18 970.737L1216.02 969.036L1215.46 971.26C1215.02 973.102 1215.06 973.322 1215.82 972.509C1216.24 971.959 1217.03 971.051 1217.55 970.53C1218.01 970.042 1217.81 971.593 1217.03 974.013C1216.18 976.877 1215.11 978.74 1214.12 979.277C1208.11 982.531 1202.14 978.001 1203.23 971.002C1203.64 968.058 1203.79 967.895 1205.16 968.512C1206.51 969.223 1206.54 969.128 1205.73 967.642C1205.26 966.775 1204.66 964.621 1204.38 962.928C1204.1 961.236 1203.8 959.639 1203.7 959.453C1203.6 959.268 1202.98 962.408 1202.26 966.402C1200.91 974.261 1201.42 977.426 1204.31 979.789C1210 984.391 1218.14 980.94 1219.26 973.53L1219.55 971.125L1220.46 972.64L1221.36 974.154L1221.35 971.917C1221.34 970.72 1221.43 969.709 1221.49 969.675C1221.55 969.642 1222.22 970.723 1222.96 972.085C1225 975.704 1226.51 975.686 1224.63 972.061C1223.62 970.046 1223.1 967.921 1223.19 965.869L1223.41 962.711L1225.93 965.59C1229.53 969.726 1229.86 969.305 1227.14 964.132C1224.75 959.579 1224.75 959.579 1226.66 961.029C1227.76 961.875 1228.76 962.535 1228.88 962.468C1229 962.401 1228.06 960.667 1226.7 958.601L1224.31 954.93L1226.59 956.178C1229.67 957.873 1230.71 957.87 1229.34 956.214C1228.71 955.352 1228.5 954.666 1228.93 954.431C1229.3 954.23 1229.75 954.31 1229.88 954.557C1230.05 954.867 1230.55 954.913 1231.05 954.645C1231.73 954.276 1231.59 953.871 1230.52 952.929C1228.74 951.413 1228.9 950.682 1230.93 951.025C1232.23 951.203 1232.19 951.141 1230.57 950.501C1229.26 950.009 1228.9 949.643 1229.46 949.341C1230.01 949.039 1229.88 948.791 1229.21 948.435C1228.63 948.265 1227.98 947.499 1227.74 946.908C1227.53 946.222 1227 945.703 1226.56 945.623C1225.17 945.574 1224.96 944.006 1226.1 942.267C1226.8 941.33 1227.86 937.23 1228.55 933.174C1232.49 909.569 1228.94 891.63 1217.66 878.201C1208.61 867.407 1196.22 859.78 1171.93 850.119C1146.7 840.079 1121.94 839.319 1063.67 846.627C1016.19 852.571 982.389 853.906 948.866 851.166C894.587 846.778 847.917 830.418 815.425 804.452C798.983 791.255 790.87 782.195 783.852 769.098C778.345 758.786 776.189 751.704 775.034 740.556C773.678 727.114 776.828 709.869 782.897 698.01C792.069 679.904 805.111 668.352 827.845 658.275C887.166 632.058 949.449 622.097 1009.21 629.361C1070.27 636.802 1128.33 664.131 1173.73 706.813C1214.44 745.143 1244.14 795.212 1258.55 850.038C1276.54 918.863 1269.51 990.592 1238.36 1055.21C1197.98 1138.84 1137.71 1204.26 1059.82 1249.27C1048.78 1255.65 1046.32 1257.31 1046.69 1257.99C1047.02 1258.61 1046.75 1258.84 1045.8 1258.87C1045.01 1258.89 1041.25 1260.37 1037.34 1262.17C995.69 1281.54 951.862 1294.07 906.194 1299.52C883.345 1302.29 851.88 1303.64 846.691 1302.04C844.686 1301.45 843.174 1301.47 842.718 1301.95C840.592 1304.39 792.28 1300.37 764.103 1295.37C731.077 1289.56 689.24 1277.39 660.004 1265.12C638.66 1256.18 622.518 1248.27 621.445 1246.29C620.975 1245.42 619.595 1244.64 617.696 1244.39C612.437 1243.56 586.531 1228.12 564.503 1212.74C520.571 1181.92 483.17 1144.68 452.912 1101.41C434.197 1074.7 416.346 1040.73 405.105 1010.37C392.548 976.409 382.872 937.119 377.827 899.725C364.253 798.551 378.977 701.265 419.268 626.33C445.69 577.091 480.347 539.649 527.067 509.687C537.466 503.011 562.867 489.727 573.872 485.205C623.398 464.857 669.683 458.038 718.872 463.822C740.099 466.337 772.482 474.66 792.249 482.612C820.319 493.913 846.503 508.238 872.407 526.48C912.503 554.653 966.998 584.715 1006.43 600.431C1055.99 620.194 1095.81 625.846 1124.8 617.265C1133.57 614.676 1145.39 608.111 1151.57 602.361C1157.1 597.2 1163.78 588.536 1167.24 581.773C1170.41 575.65 1176.16 560.525 1177.62 554.363C1179.65 545.978 1179.3 536.316 1176.54 525.472C1176 523.284 1176.58 523.769 1182.01 530.68L1188.06 538.453L1200.17 531.815C1206.85 528.192 1214.89 523.358 1218.09 521.142L1223.88 517.044L1222.35 514.668C1217.63 507.135 1183.84 467.536 1181.64 466.884C1181.29 466.832 1178.02 468.768 1174.41 471.281C1170.77 473.733 1162.58 478.572 1156.21 482.028C1143.64 488.838 1143.82 488.58 1147.22 491.462C1148.03 492.223 1148.56 492.741 1148.37 492.684C1148.08 492.599 1145.84 491.728 1143.39 490.737C1133.14 486.758 1119.1 486.118 1108.48 489.146C1102.18 490.961 1091.9 496.53 1087.21 500.592C1075.92 510.637 1068.41 525.758 1067.74 539.896C1066.97 556.654 1073.39 571.599 1086.48 583.646C1096.56 592.924 1111.45 598.389 1124.95 597.881C1135.37 597.444 1139.83 596.225 1149.55 590.958C1158.84 585.925 1158.94 586.111 1150.88 594.727C1146.86 599.145 1145.11 600.494 1138.25 604.533C1125.73 611.878 1116.74 614.348 1099.96 615.027C1081.77 615.752 1064.39 613.08 1039.63 605.671C992.562 591.687 932.466 560.896 876.259 521.91C809.993 476.04 746.459 454.721 679.923 456.094C644.721 456.907 612.082 463.78 575.966 477.984C562.063 483.515 531.619 499.611 518.049 508.566C500.966 519.906 483.076 534.486 470.299 547.416C467.982 549.793 465.903 551.72 465.712 551.664C465.583 551.573 458.707 546.569 450.439 540.477C442.172 534.384 434.617 528.866 433.585 528.144C431.812 526.942 431.874 526.908 434.079 524.031C477.345 468.629 533.17 422.36 594.219 391.201C659.512 357.823 726.908 340.446 800.056 337.973C850.733 336.304 906.045 343.336 950.615 357.15L957.331 359.198L956.421 361.213C954.068 366.332 953.289 365.633 965.591 369.86C1025.57 390.382 1079.47 423.331 1125.41 467.476C1131.53 473.293 1133.04 475.197 1135.52 479.621C1137.1 482.531 1138.46 485.637 1138.61 486.515C1138.79 488.021 1139.01 487.983 1145.75 484.893C1156.02 480.206 1174.49 468.916 1181.61 462.978L1183.14 461.667L1179.7 460.646C1175.56 459.364 1168.6 454.489 1164.15 449.688C1155.33 440.211 1127.32 417.343 1107.45 403.44C1085.01 387.731 1072.64 380.576 1048.77 369.64C1026.98 359.582 1010.2 353.297 984.419 345.481L966.214 339.967L965.009 342.622L963.805 345.277L948.546 341.211C894.272 326.488 846.071 321.049 791.829 323.529C714.934 327.071 643.215 347.111 576.581 383.779C566.77 389.175 557.364 394.432 555.697 395.495ZM444.114 545.506L460.357 557.449L452.44 566.785C419.899 605.323 396.593 651.592 382.033 706.017C374.387 735.07 368.784 771.586 367.633 801.685C367.378 806.388 367.036 810.338 366.788 810.473C366.045 810.875 332.595 812.261 332.394 811.889C332.293 811.704 332.437 806.5 332.673 800.284C336.04 716.923 360.925 636.318 405.517 564.739C412.314 553.927 426.212 533.901 427.151 533.713C427.527 533.669 435.139 538.995 444.114 545.506ZM349.965 819.188C359.093 818.887 366.557 818.767 366.624 818.891C366.692 819.015 366.982 827.828 367.234 838.345C368.88 905.534 381.599 968.325 405.446 1027.41C407.985 1033.72 413.423 1044.79 421.491 1060.12L433.696 1083.39L424.842 1088.18L416.05 1092.95L413.732 1089.56C402.414 1073.1 383.272 1038.22 374.649 1018.47C351.443 965.442 338.011 912.569 333.795 858.227C332.802 845.308 332.14 820.437 332.821 820.068C333.192 819.867 340.899 819.455 349.965 819.188ZM1099.78 502.352C1103.33 502.109 1105.95 506.938 1103.81 509.782C1102.29 511.722 1099.34 512.04 1097.18 510.41C1094.72 508.537 1094.87 505.412 1097.68 502.61C1097.71 502.515 1098.68 502.388 1099.78 502.352ZM1089.29 510.922C1095.69 512.097 1098.11 519.517 1093.59 524.046C1088.93 528.737 1080.56 525.42 1080.38 518.872C1080.31 515.787 1081.62 513.632 1084.59 512.022C1086.33 511.082 1088.11 510.677 1089.29 510.922ZM1116.72 496.374C1119.33 497.044 1120.63 499.144 1119.86 501.722C1118.67 505.731 1113.52 506.279 1111.51 502.564C1109.56 498.973 1112.62 495.311 1116.72 496.374ZM1133.17 496.273C1133.96 496.405 1135.18 497.184 1135.87 498.012C1136.89 499.144 1137.04 500.021 1136.44 501.869C1136.08 503.267 1135.15 504.653 1134.47 505.022C1133.78 505.391 1132.12 505.414 1130.75 504.955C1128.87 504.45 1128.22 503.841 1127.82 502.373C1127.57 501.31 1127.4 499.961 1127.57 499.388C1127.8 497.899 1131.27 496.021 1133.17 496.273ZM1083 529.468C1085.19 529.963 1086.7 532.907 1085.99 535.293C1084.35 540.83 1076.53 538.819 1077.22 532.998C1077.43 530.723 1080.48 528.826 1083 529.468ZM1121.46 511.91C1132 511.405 1141.53 515.692 1147.98 523.893C1155.83 533.812 1156.12 549.274 1148.69 559.791C1140.74 570.987 1126.96 575.726 1114.23 571.734C1092.45 564.952 1085.66 538.518 1101.19 521.212C1103.11 519.132 1105.14 517.71 1110.01 515.312C1115.56 512.546 1116.93 512.122 1121.46 511.91ZM1149.75 502.186C1152.05 503.182 1153.61 505.62 1153.3 507.71C1152.41 513.159 1145.44 514.933 1142.96 510.351C1141.38 507.441 1141.34 506.024 1142.91 504.05C1144.79 501.751 1147.22 501.072 1149.75 502.186ZM1082.73 546.272C1085.46 547.033 1086.36 548.39 1086.07 551.109C1085.88 552.974 1082.99 555.181 1080.97 554.995C1079.04 554.838 1077.19 553.04 1076.87 551.128C1076.4 547.457 1079.16 545.16 1082.73 546.272ZM1160.94 514.863C1163.35 516.044 1164.13 517.783 1163.42 520.327C1162.78 522.838 1161.05 523.934 1158.33 523.646C1156.06 523.437 1154.16 520.38 1154.8 517.87C1155.36 515.488 1158.83 513.767 1160.94 514.863ZM1089.38 561.65C1091.78 562.832 1092.77 564.942 1092.09 567.233C1090.44 572.77 1081.82 570.313 1083.24 564.657C1083.79 562.276 1087.27 560.554 1089.38 561.65ZM1166.49 530.12C1170.5 531.312 1171.05 536.461 1167.33 538.474C1163.74 540.42 1159.95 537.268 1160.98 533.264C1161.69 530.72 1164.01 529.383 1166.49 530.12ZM1100.92 572.456C1105.66 573.813 1106.38 580.312 1102.05 582.66C1099.51 584.036 1095.79 582.93 1094.41 580.391C1093.03 577.852 1094.14 574.129 1096.68 572.754C1097.86 572.116 1099.46 571.969 1100.92 572.456ZM1166.72 546.813C1169.21 547.551 1170.22 549.566 1169.52 552.267C1168.48 556.271 1163.44 557.005 1161.52 553.476C1159.44 549.637 1162.62 545.594 1166.72 546.813ZM1115.85 579.748C1116.77 579.969 1117.97 581.001 1118.61 582.178C1120.52 585.707 1117.19 589.756 1113.27 588.593C1107.73 586.947 1110.19 578.327 1115.85 579.748ZM1158.77 558.734C1161.32 558.713 1164.53 560.498 1165.67 562.603C1166.81 564.708 1166.55 568.372 1165.14 570.498C1162.94 573.69 1160.33 574.627 1156.7 573.549C1153.93 572.727 1153.22 572.151 1151.95 569.799C1150.64 567.384 1150.61 566.597 1151.56 563.919C1152.87 560.41 1155.11 558.792 1158.77 558.734ZM1132.18 580.029C1135 580.503 1136.63 583.065 1135.7 585.648C1134.41 589.314 1129.2 589.896 1127.42 586.614C1126.38 584.695 1126.44 583.621 1127.6 581.787C1128.8 579.857 1129.52 579.549 1132.18 580.029ZM1148.52 573.976C1149.77 574.502 1150.9 575.253 1151.13 575.686C1152.04 577.358 1150.77 581.086 1148.98 582.059C1147.18 583.032 1143.37 582.055 1142.46 580.383C1141.56 578.712 1142.82 574.983 1144.62 574.01C1145.79 573.373 1147.15 573.36 1148.52 573.976ZM438.599 1090.66C440.176 1093.57 452.408 1110.97 458.372 1118.87C496.809 1169.41 545.431 1211.54 602.871 1243.94C607.719 1246.67 611.866 1249.15 612.157 1249.4C612.387 1249.67 611.079 1253.02 609.253 1256.9L605.862 1263.94L598.903 1260.26C578.413 1249.5 550.951 1231.78 531.265 1216.74C492.214 1186.8 457.12 1150.71 428.297 1110.82C423.941 1104.85 420.341 1099.83 420.274 1099.71C420.207 1099.59 424.198 1097.34 429.151 1094.66C436.334 1090.77 438.23 1089.98 438.599 1090.66ZM624.006 1255.15C631.576 1259.22 650.381 1267.61 663.057 1272.68C715.807 1293.75 772.644 1305.96 828.02 1308.24C834.55 1308.46 839.984 1308.88 840.118 1309.13C840.257 1309.53 840.617 1313.74 840.581 1314.57C840.472 1315.1 814.799 1315.32 803.975 1314.86C744.588 1312.28 684.233 1297.56 627.579 1271.8C616.094 1266.57 613.878 1265.28 615.302 1264.51C615.674 1264.31 615.72 1263.8 615.485 1263.37C615.178 1262.66 618.827 1253.87 619.722 1253.31C619.908 1253.21 621.89 1254.05 624.006 1255.15ZM1224.64 941.937C1224.91 942.432 1224.9 943 1224.59 943.167C1223.78 943.604 1222.69 942.915 1222.92 942.151C1223.23 941.101 1224.14 941.008 1224.64 941.937ZM877.89 1307.88C885.152 1307.39 896.435 1306.49 902.9 1305.71C909.461 1304.95 914.74 1304.5 914.683 1304.69C914.66 1304.94 908.486 1305.96 901.025 1307.12C879.828 1310.28 848.937 1312.84 848.199 1311.48C848.065 1311.23 848.073 1310.51 848.271 1309.84C848.526 1308.98 850.472 1308.72 856.615 1308.68C861.089 1308.66 870.655 1308.28 877.89 1307.88Z" fill="white"/>
<path d="M1083.31 515.12C1079.76 519.522 1085.89 526.536 1090.9 523.819C1097.16 520.43 1093.12 510.764 1086.36 513.066C1085.24 513.513 1083.88 514.408 1083.31 515.12Z" fill="white"/>
<path d="M1123.55 521.829C1120.33 528.301 1113.32 532.817 1105.49 533.295L1101.41 533.588L1103.92 536.309C1109.25 541.995 1110.97 548.272 1109.28 555.354C1108.63 557.865 1108.27 560.145 1108.37 560.331C1108.47 560.517 1109.75 560.065 1111.23 559.26C1117.42 555.905 1124.55 556.048 1131.26 559.703L1135.72 562.172L1135.42 557.927C1134.83 550.479 1137.49 544.31 1143.66 539.128L1146.53 536.607L1142.48 535.921C1140.26 535.522 1136.78 534.124 1134.72 532.837C1131.4 530.709 1130.78 530.004 1127.93 524.742C1126.25 521.646 1124.84 519.045 1124.84 519.045C1124.88 519.107 1124.26 520.325 1123.55 521.829ZM1124.49 534.213C1127.15 534.378 1130.52 537.198 1131.4 540.005C1132.44 543.121 1130.52 548.005 1127.68 549.549C1122.85 552.166 1117.62 550.353 1115.76 545.435C1113.51 539.522 1117.99 533.735 1124.49 534.213Z" fill="white"/>
<path d="M1120.53 541.088C1119.02 544.068 1121.92 547.06 1124.77 545.517C1126.32 544.678 1127.2 541.876 1126.39 540.39C1125.79 539.276 1123.21 538.352 1122.16 538.923C1121.72 539.157 1120.97 540.128 1120.53 541.088Z" fill="white"/>
<path d="M1153.44 563.384C1152.59 564.326 1152.75 568.322 1153.62 569.932C1155.77 573.895 1163.53 572.252 1164.32 567.657C1165.17 562.714 1160.41 558.963 1156.33 561.335C1155.09 562.006 1153.77 562.963 1153.44 563.384Z" fill="white"/>
<path d="M490.857 903.595C486.625 917.662 486.75 925.284 491.728 960.632C496.193 991.932 497.977 999.215 504.824 1012.89L509.687 1022.75L507.099 1023.59L504.511 1024.43L505.851 1027.79C508.362 1034.2 517.061 1061.04 517.113 1062.61C517.173 1063.46 517.139 1065.32 517.029 1066.74L516.797 1069.27L521.072 1069.92C523.415 1070.25 525.471 1070.5 525.657 1070.4C525.781 1070.33 525.721 1069.48 525.437 1068.52C524.965 1066.61 525.36 1066.16 528.801 1065.41C531.366 1064.82 531.456 1064.69 530.571 1061.73C529.969 1059.73 529.745 1059.61 526.378 1059.76C524.427 1059.85 522.619 1059.47 522.35 1058.98C521.847 1058.05 516.883 1042.23 514.183 1032.96L512.975 1028.81L518.776 1038.49C521.914 1043.83 527.783 1053.63 531.811 1060.18C535.811 1066.82 539.05 1072.35 538.994 1072.54C538.999 1072.7 537.373 1073.1 535.462 1073.42C528.129 1074.67 525.656 1078.97 527.21 1087.9L528.212 1093.44L529.857 1087.91C531.843 1081.22 533.736 1079.4 539.111 1078.97L542.663 1078.72L542.191 1076.82C541.762 1075.29 542.441 1075.8 545.685 1079.57C547.881 1082.15 551.656 1086.75 554.12 1089.82L558.59 1095.4L552.961 1098.62C542.04 1104.77 540.361 1108.33 543.611 1118.02C544.269 1119.82 544.595 1120.13 545.939 1119.8C548.689 1119.11 549.022 1118.69 548.957 1115.76C548.933 1114.09 549.15 1113.02 549.503 1113.22C549.857 1113.43 552.355 1116.56 555.088 1120.13L559.998 1126.68L560.368 1131.21C560.575 1133.66 560.872 1135.98 561.04 1136.29C561.207 1136.6 562.472 1136.71 563.855 1136.6C566.086 1136.44 566.3 1136.24 566.563 1134.66C566.855 1132.98 567.309 1133.37 574.18 1140.14C583.596 1149.54 601.959 1165.54 605.421 1167.34C607.279 1168.26 608.288 1169.24 608.678 1170.55C609.202 1172.1 609.426 1172.22 610.283 1171.44C611.077 1170.69 612.285 1170.99 615.427 1172.66C617.768 1173.87 619.721 1174.81 619.845 1174.75C620.031 1174.65 618.338 1173 616.196 1171.12L612.204 1167.59L613.001 1165.96C613.713 1164.61 613.525 1163.67 612.149 1161.14C610.304 1157.73 609.797 1153.84 610.989 1151.75C611.644 1150.6 612.116 1150.58 614.07 1151.52L616.438 1152.64L615.59 1154.63C613.836 1158.78 615.282 1164.4 619.083 1167.87C620.512 1169.18 620.752 1169.77 620.479 1171.04C619.979 1173.07 621.481 1178.51 622.988 1180.25C625.084 1182.64 630.902 1188.06 630.987 1187.77C631.191 1187.26 625.731 1164.03 625.382 1163.98C625.287 1163.95 624.363 1164.61 623.479 1165.49L621.833 1167.18L621.812 1164.63C621.713 1159.72 622.308 1155.79 623.237 1155.29C623.794 1154.99 625.182 1155.03 626.294 1155.31L628.423 1155.84L628.155 1159.19L627.983 1162.57L629.988 1163.16C631.42 1163.59 632.139 1163.44 632.524 1162.67C632.756 1162.06 633.468 1160.72 633.999 1159.63L634.971 1157.58L644.453 1159.41C655.143 1161.55 654.167 1160.63 655.73 1170.76L656.518 1176.5L658.997 1176.2L661.448 1175.99L661.388 1169.38L661.327 1162.76L663.951 1163.02C668.283 1163.48 668.962 1163.99 671.814 1169.25C674.263 1173.77 674.369 1174.12 672.975 1173.91C671.992 1173.72 669.843 1174.49 666.5 1176.3C662.166 1178.65 661.095 1179.63 658.258 1183.41C654.038 1189.22 652.63 1192.38 652.759 1196.32C652.868 1199.62 654.891 1203.65 657.673 1205.83C658.548 1206.56 658.525 1206.81 657.552 1206.94C654.729 1207.35 645.398 1212 642.705 1214.42C638.97 1217.73 638.15 1221.54 640.429 1224.71C642.31 1227.29 647.272 1229.65 649.999 1229.21C654.418 1228.5 656.185 1223.78 652.921 1221.3C651.434 1220.18 651.463 1220.09 653.753 1218.85C656.664 1217.27 657.332 1217.47 657.123 1219.74C656.819 1221.99 657.859 1223.91 659.779 1224.79C661.092 1225.44 661.198 1225.79 660.951 1227.84C660.464 1231.23 662.314 1232.87 667.218 1233.5C676.966 1234.78 695.395 1232.73 702.884 1229.55C706.986 1227.81 708.036 1226.2 707.084 1223.11C706.136 1220.18 703.406 1219.57 697.754 1221.12C688.794 1223.65 675.004 1224.95 668.982 1223.89L666.476 1223.41L672.219 1219.81C675.366 1217.79 680.479 1214.22 683.645 1211.78C691.237 1205.98 692.052 1205.86 695.033 1209.29C698.047 1212.79 700.464 1214.44 704.928 1216.03C711.464 1218.33 717.132 1217.26 718.238 1213.54C719.316 1209.91 716.715 1207.48 711.64 1207.42C708.645 1207.37 703.373 1205.18 703.685 1204.13C703.804 1203.9 704.738 1203.55 705.868 1203.42C711.17 1202.71 713.736 1199.32 711.757 1195.67C710.515 1193.38 708.482 1192.88 704.507 1193.67C702.786 1194.04 701.341 1194.18 701.173 1193.87C700.234 1192.14 699.229 1183.63 699.675 1180.91C700.27 1176.98 702.584 1171.64 703.974 1170.81C704.469 1170.54 705.045 1169.83 705.186 1169.35C705.357 1168.78 707.508 1167.13 710.013 1165.69L714.528 1163.09L716.087 1166.41C717.578 1169.6 717.612 1169.67 719.766 1169.06C720.953 1168.74 721.977 1168.26 721.972 1168.11C722 1168.01 721.703 1165.69 721.238 1163.06C720.836 1160.39 720.595 1157.88 720.709 1157.5C720.789 1157.05 722.257 1156.66 723.926 1156.63L726.916 1156.54L725.595 1158.53C723.671 1161.34 723.362 1163.43 724.335 1167.14C725.097 1170.18 725.992 1171.53 733.863 1180.88L742.428 1191.22L742.238 1196.93C741.947 1202.46 742.626 1204.89 745.108 1207.55C745.792 1208.22 746.437 1208.67 746.651 1208.48C746.837 1208.38 747.564 1205.58 748.214 1202.34C750.818 1189.56 752.502 1186.16 757.084 1183.68C758.384 1182.98 760.915 1182.33 762.674 1182.17L765.912 1181.94L764.975 1179.32C764.206 1177.02 763.752 1176.62 761.943 1176.24C760.831 1175.96 759.066 1175.96 758.099 1176.24C757.131 1176.53 756.007 1176.82 755.568 1176.89C753.909 1177.23 748.219 1168.06 747.152 1163.43C746.791 1162.03 746.633 1160.11 746.793 1159.22C747.022 1157.57 747.084 1157.54 749.822 1157.42C753.408 1157.24 753.498 1157.11 753.65 1155.02C753.789 1153.51 753.335 1153.11 749.625 1151.44C746.139 1149.88 744.555 1149.62 740.13 1150.18C731.214 1151.16 731.768 1151.74 732.27 1141.14C732.576 1136.09 732.96 1131.47 733.192 1130.87C733.514 1130.13 735.483 1129.63 740.318 1129.09C743.961 1128.72 747.103 1128.46 747.294 1128.51C747.451 1128.51 747.568 1131.09 747.509 1134.08L747.471 1139.63L754.021 1152.9C757.632 1160.16 760.979 1167.07 761.55 1168.12C762.192 1169.46 764.654 1171.49 769.03 1174.24C772.666 1176.52 775.651 1178.18 775.708 1177.99C775.827 1177.77 773.71 1174.75 771.011 1171.25C766.235 1164.95 764.01 1160.54 763.929 1157.14C763.88 1154.69 765.412 1149.53 766.794 1147.5C767.934 1145.76 767.929 1145.61 766.061 1144.37C764.417 1143.26 763.85 1143.25 762.593 1144.33C759.343 1147.05 758.904 1147.13 757.307 1145.51C755.514 1143.68 753.758 1138.23 753.874 1135.04C753.99 1131.85 756.136 1128.13 758.612 1126.79C761.77 1125.07 762.567 1125.36 763.553 1128.51C765.753 1135.97 765.652 1135.79 767.571 1134.75C769.181 1133.87 769.375 1133.05 769.565 1127.34C769.821 1117.91 770.406 1115.59 773.131 1114.11C775.298 1112.94 786.58 1112.03 787.117 1113.02C787.218 1113.21 787.422 1114.62 787.564 1116.06C787.827 1118.32 787.533 1118.96 785.506 1120.54C783.63 1121.96 782.766 1123.47 781.745 1126.91C780.298 1131.77 780.792 1136.23 783.6 1143.04C785.928 1148.67 785.9 1148.76 778.732 1149.28C775.275 1149.55 772.228 1149.84 771.981 1149.98C771.423 1150.28 771.571 1153.8 772.208 1154.98C772.611 1155.72 785.645 1155.39 787.069 1154.62C787.998 1154.11 792.284 1155.08 792.72 1155.88C792.955 1156.31 791.9 1157.77 790.215 1159.24C788.592 1160.68 786.534 1163.24 785.709 1164.97C782.554 1171.56 783.969 1178.16 791.144 1191.26C794.633 1197.69 795.159 1198.37 794.839 1196.3C794.547 1194.14 794.844 1194.54 797.763 1199.92C801.386 1206.61 802.979 1208.07 809.042 1210.39L812.551 1211.69L810.105 1208.21C808.688 1206.34 806.221 1202.23 804.577 1199.19C800.651 1191.95 800.14 1187.9 802.014 1180.72L803.507 1175.34L800.597 1176.92C795.211 1179.84 793.498 1183.33 794.149 1189.71C794.506 1192.88 794.449 1193.07 793.814 1191.01C792.059 1185.55 790.365 1176.22 790.504 1172.78C790.792 1168.14 792.644 1165.05 796.483 1162.97C801.56 1160.22 802.318 1160.29 803.629 1163.74C805.181 1167.79 808.613 1170.58 815.607 1173.43C818.768 1174.68 820.835 1175.25 820.28 1174.67C811.089 1165.39 809.499 1163.05 809.119 1158.21C808.886 1154.97 810.784 1151.38 813.447 1149.93C815.366 1148.89 820.583 1150.39 823.948 1153.06C825.597 1154.32 827.173 1155.31 827.421 1155.18C828.659 1154.51 829.5 1151.33 828.762 1149.97C827.856 1148.29 828.16 1147.97 831.078 1147.59C833.024 1147.34 833.057 1147.4 834.905 1151.84C837.43 1157.68 841.7 1162.02 850.285 1167.22L856.586 1171.01L854.624 1166.95C853.272 1164.16 851.161 1161.3 847.794 1157.59C843.187 1152.64 839.812 1147.74 840.181 1146.5C840.374 1145.68 857.484 1142.81 859.546 1143.22C860.562 1143.47 864.046 1145.9 867.292 1148.79C870.6 1151.64 873.539 1153.82 873.877 1153.55C877.576 1151.07 877.566 1150.75 872.926 1145.74C870.674 1143.35 868.903 1141.27 868.96 1141.08C869.05 1140.95 872.768 1139.98 877.306 1139.04C881.811 1138.04 885.5 1137.16 885.528 1137.07C885.495 1137.01 885.363 1135.88 885.131 1134.56C884.738 1132.21 884.676 1132.24 880.68 1132.41C878.415 1132.51 874.152 1133.22 871.059 1134.01C863.776 1135.8 863.141 1135.66 861.59 1131.62C858.756 1124.02 859.607 1119.24 864.665 1114.97C866.322 1113.59 867.635 1112.32 867.534 1112.14C867.165 1111.46 859.345 1112.25 857.735 1113.12C855.135 1114.53 853.587 1119.21 854.001 1124.12L854.383 1128.07L849.336 1124.08C844.872 1120.57 843.886 1119.34 841.51 1115.11C838.557 1109.66 838.183 1106.9 839.642 1101.46C840.534 1097.93 841.85 1095.78 845.559 1091.69C846.957 1090.13 848.959 1087.76 850.019 1086.47L851.892 1084.01L846.786 1084.93C840.145 1086.13 839.836 1086.3 836.715 1091.03C830.14 1100.92 831.298 1115.03 839.413 1123.21C843.129 1126.96 843.062 1126.84 840.412 1127.71C837.482 1128.66 833.956 1133.54 832.942 1138.17C832.084 1141.76 831.403 1142.13 825.151 1142.71C822.419 1142.99 821.813 1142.76 820.362 1140.82C816.84 1136.24 816.942 1129.78 820.7 1124.3C822.23 1121.95 822.315 1121.66 820.937 1120.01C820.086 1119.03 819.335 1118.23 819.239 1118.2C819.144 1118.17 817.916 1119.16 816.507 1120.4C815.003 1121.62 813.584 1122.55 813.298 1122.46C812.152 1122.12 811.929 1115.35 812.925 1111.13C813.567 1108.62 815.117 1104.98 816.499 1102.95C818.661 1099.69 818.831 1099.12 817.825 1097.26C816.818 1095.41 816.627 1095.35 814.77 1096.36C808.702 1099.64 805.179 1107.48 805.58 1116.79C805.803 1121.64 806.415 1123.95 809.835 1133.07C812.044 1138.92 813.812 1143.81 813.817 1143.97C813.714 1144.66 795.52 1147.15 793.993 1146.7C790.461 1145.65 787.616 1137.74 788.338 1130.94C788.909 1125.35 790.114 1124.61 795.233 1126.97L799.297 1128.85L798.376 1126.7C795.857 1121.02 794.058 1115.19 793.998 1112.42C793.873 1108.64 795.083 1106.14 799.662 1100.7C803.755 1095.84 803.02 1095.51 796.209 1099.2C791.07 1101.99 787.975 1105.59 787.707 1108.94C787.558 1110.14 787.341 1111.22 787.093 1111.35C786.846 1111.49 785.47 1110.87 784.085 1109.94C778.906 1106.74 773.057 1106.14 768.909 1108.39C768.166 1108.79 766.659 1110.89 765.563 1113.01C762.93 1118.2 761.545 1119.19 754.891 1120.95C749.047 1122.44 738.371 1123.58 737.935 1122.77C737.767 1122.46 738.923 1121.19 740.36 1119.86C741.859 1118.48 742.919 1117.19 742.785 1116.94C742.248 1115.95 736.04 1114.99 734.645 1115.66C731.915 1116.98 730.906 1117.93 729.483 1120.62C728.002 1123.51 723.88 1126.54 725.208 1123.82C725.796 1122.54 725.657 1122.14 723.997 1120.55C721.722 1118.42 718.858 1117.57 715.119 1117.91C711.352 1118.35 709.838 1119.25 709.805 1121.11C709.864 1121.96 709.338 1123.21 708.696 1123.8C707.264 1125.29 705.025 1130.03 705.394 1130.71C705.562 1131.02 706.54 1131.05 707.508 1130.77C708.79 1130.47 709.363 1130.64 709.551 1131.58C709.745 1132.68 711.228 1132.76 717.727 1132.04L725.609 1131.21L725.702 1134.05C725.835 1139.02 724.62 1141.36 720.944 1143.59C718.439 1145.03 717.373 1146.17 716.373 1148.31C714.874 1151.61 714.936 1151.57 711.794 1151.83C710.411 1151.94 708.189 1152.43 706.817 1152.85C705.416 1153.37 704.005 1153.57 703.651 1153.36C702.591 1152.74 706.37 1147.89 709.032 1146.44C711.199 1145.27 711.56 1144.75 711.527 1142.77C711.42 1140.5 711.42 1140.5 709.132 1140.86C703.959 1141.66 699.71 1145.65 697.485 1151.74L696.386 1154.74L691.242 1155.44L686.035 1156.18L687.536 1152C689.207 1147.25 692.421 1143.43 696.57 1141.18C699.046 1139.84 699.408 1139.32 699.498 1137.27L699.482 1134.88L696.564 1135.26C689.311 1136.06 683.309 1142.28 680.596 1151.76C679.693 1154.97 678.574 1157.34 677.769 1157.78C676.159 1158.65 675.963 1158.43 676.084 1155.41C676.197 1153.1 676.164 1153.04 673.362 1152.16L670.526 1151.21L669.814 1154.48L669.165 1157.71L665.968 1157.28C664.164 1157.06 662.609 1156.7 662.508 1156.51C662.374 1156.27 664.432 1153.71 667.11 1150.82C672.308 1145.04 672.274 1144.98 666.975 1144.8C665.806 1144.72 665.576 1144.44 665.452 1142.58C665.382 1141.42 665.537 1140.38 665.847 1140.21C666.156 1140.04 668.747 1140.24 671.567 1140.71L676.667 1141.55L676.827 1138.74C676.966 1137.23 676.852 1135.69 676.685 1135.38C676.517 1135.07 674.579 1134.6 672.332 1134.29L668.253 1133.86L669.994 1132.19C671.459 1130.76 671.539 1130.32 670.533 1128.46L669.358 1126.29L663.662 1129.38C658.895 1131.96 657.398 1132.45 655.032 1132.37C649.666 1132.08 642.055 1130.59 642.029 1129.81C642.168 1128.29 646.28 1126.86 652.464 1126.15C655.95 1125.79 658.93 1125.37 658.925 1125.22C659.157 1124.61 652.832 1121.07 650.575 1120.45C649.081 1120.06 647.886 1119.18 647.215 1117.95C644.464 1112.87 635.834 1112.02 628.466 1116.01C624.937 1117.92 624.08 1118.71 622.295 1121.92L620.211 1125.61L615.652 1124L611.188 1122.41L612.772 1118.83C615.147 1113.46 616.099 1112.7 621.837 1110.87C624.644 1109.99 627.136 1109.12 627.384 1108.99C628.374 1108.45 622.122 1105.19 619.656 1104.93C618.139 1104.79 615.971 1104.04 614.715 1103.2C611.365 1101.01 608.509 1101.35 603.786 1104.31C600.7 1106.31 599.117 1107.97 596.56 1111.67C593.468 1116.31 593.315 1116.48 591.907 1115.8C589.667 1114.77 589.143 1113.21 589.888 1110C590.44 1107.62 591.134 1106.68 593.6 1105.03C595.328 1103.93 596.737 1102.69 596.727 1102.37C596.745 1101.96 595.245 1101.41 593.437 1101.03C588.775 1100.11 585.898 1101.75 584.183 1106.13L582.999 1109.41L583.125 1106.54C583.4 1100.54 586.69 1098.04 594.891 1097.36C597.185 1097.16 598.939 1096.85 598.839 1096.66C598.436 1095.92 590.959 1092.76 589.189 1092.6C580.468 1091.88 573.914 1102.4 578.208 1110.32C579.081 1111.93 579.083 1112.97 578.348 1114.57L577.348 1116.72L584.871 1119.37L592.395 1122.02L590.375 1124.8L588.418 1127.54L585.915 1126.17C582.318 1124.12 579.89 1124.07 576.962 1126.06C575.577 1127.05 574.073 1128.26 573.65 1128.81C572.984 1129.66 572.564 1129.32 570.453 1126.46C569.131 1124.61 567.098 1122.19 565.898 1121.16C564.143 1119.55 563.841 1118.99 564.226 1118.22C565.061 1116.81 565.872 1116.53 571.235 1115.79C573.934 1115.44 576.284 1115.05 576.408 1114.98C576.47 1114.95 575.49 1113.88 574.189 1112.66C570.388 1109.2 567.983 1108.9 562.581 1111.34L557.984 1113.35L555.809 1111.41C554.637 1110.28 553.589 1109.09 553.545 1108.71C553.396 1107.99 560.709 1099.46 562.071 1098.72C562.504 1098.49 563.735 1098.54 564.881 1098.88C565.931 1099.2 567.376 1099.05 568.051 1098.53C569.437 1097.54 569.024 1096.48 565.641 1092.31L563.865 1090.06L566.228 1089.1C568.997 1088 569.159 1088.16 568.404 1091.05L567.875 1093.18L570.785 1091.6L573.695 1090.02L573.079 1093.32C572.793 1095.16 573.028 1099.44 573.677 1102.85C574.387 1106.23 574.867 1109.33 574.883 1109.8C574.896 1111.16 575.197 1109.79 576.448 1102.79C578.435 1091.38 580.648 1089.7 590.628 1092.3L596.795 1093.93L594.31 1090.23C592.95 1088.16 590.989 1086.02 589.866 1085.43C588.744 1084.83 586.685 1083.55 585.204 1082.59C583.01 1081.05 581.555 1080.88 574.788 1081.1C569.69 1081.3 565.366 1082.04 562.373 1083.02C558.947 1084.24 557.659 1084.38 556.88 1083.68C556.359 1083.16 555.99 1082.48 556.075 1082.19C556.16 1081.9 561.988 1079.95 569.041 1077.89C581.399 1074.23 581.804 1074.1 580.762 1073.06C577.012 1069.24 570.673 1069.07 563.104 1072.69C559.288 1074.52 557.47 1075.75 556.077 1077.46C555.017 1078.76 554.008 1079.71 553.755 1079.68C553.087 1079.48 551.706 1074.87 552.124 1074.16C552.333 1073.81 554.83 1073.09 557.714 1072.65L562.915 1071.76L560.369 1070.01L557.822 1068.27L563.916 1067.69L570.01 1067.11L568.733 1065.64C566.934 1063.65 565.195 1062.51 562.741 1061.68C561.113 1061.04 560.95 1060.89 561.985 1060.73C563.149 1060.66 563.11 1060.44 560.862 1058.21C555.717 1053.15 552.43 1052.85 544.017 1056.69L538.677 1059.1L538 1055.78C537.401 1052.9 535.623 1049.62 523.628 1029.85C515.23 1015.98 509.145 1005.34 507.883 1002.42C506.61 999.183 504.955 991.99 502.975 980.649C500.268 965.455 500.116 963.696 501.359 963.182C502.541 962.702 502.719 961.404 502.302 955.462C501.754 946.468 502.039 936.943 503.15 931.455L504.016 927.141L506.664 932.915C510.195 940.613 510.549 942.744 509.768 950.616C508.509 963.072 509.581 973.625 513.267 986.044C516.414 996.434 519.253 1002.26 522.718 1005.11C524.501 1006.63 525.495 1007.13 525.44 1006.44C525.358 1005.84 523.729 999.438 521.821 992.222C517.9 977.447 516.601 969.581 516.524 960.571C516.467 954.996 516.575 954.456 517.775 955.488C518.521 956.125 520.49 959.464 522.211 962.936C525.218 969.076 525.329 969.577 525.877 978.571C526.689 991.747 529 1001.63 534.764 1016.85C537.866 1024.94 538.493 1025.8 540.227 1024.86C542.023 1023.89 542.11 1024.64 538.349 1010.9C534.454 996.911 530.96 977.899 532.746 980.455C532.913 980.765 535.197 984.093 537.744 987.759L542.284 994.51L544.799 993.387L547.252 992.298L545.774 990.456C543.735 987.876 528.597 962.6 523.061 952.384C519.672 946.13 518.41 943.21 518.214 941.073C517.95 938.813 517.442 937.727 515.543 935.553C513.705 933.344 512.152 930.182 508.148 920.577C502.906 907.799 499.197 899.476 499.056 899.953C498.999 900.144 499.056 903.798 499.168 908.142C499.375 914.438 497.703 927.759 495.903 934.341C495.846 934.531 495.663 933.75 495.498 932.558C494.831 927.633 495.22 921.255 496.396 916.773C497.417 913.336 497.445 911.319 496.782 909.355C496.19 907.673 496.162 905.847 496.683 904.443C497.379 902.624 497.191 901.685 495.647 898.837C494.641 896.979 493.678 895.498 493.554 895.566C493.369 895.666 492.195 899.266 490.857 903.595ZM556.652 1060.49C560.501 1060.65 561.332 1061 558.448 1061.44C555.53 1061.82 551.701 1064.22 548.629 1067.56C547.107 1069.19 545.732 1070.49 545.575 1070.5C545.446 1070.41 544.837 1069.14 544.279 1067.52L543.304 1064.68L548.21 1062.5C551.722 1061 554.129 1060.42 556.652 1060.49ZM551.241 1108.6C551.595 1108.81 551.391 1109.32 550.648 1109.72C549.905 1110.12 549.366 1110.01 549.384 1109.6C549.368 1109.13 549.668 1108.65 549.977 1108.48C550.287 1108.31 550.854 1108.33 551.241 1108.6ZM608.219 1110.72C607.964 1111.58 607.593 1111.78 606.733 1111.53C605.874 1111.27 605.897 1111.02 607.074 1110.38C608.25 1109.74 608.475 1109.86 608.219 1110.72ZM605.79 1117.33C606.453 1117.37 606.98 1118.04 607.274 1119.32L607.78 1121.29L604.405 1120.24L601.126 1119.21L602.983 1118.21C603.974 1117.67 605.222 1117.31 605.79 1117.33ZM583.919 1130.62C586.973 1129.6 588.253 1130.19 585.9 1131.47C584.448 1132.33 584.419 1132.43 585.65 1132.48C586.943 1132.5 586.958 1132.98 586.283 1137.35C585.803 1140.01 585.308 1142.2 585.123 1142.3C584.565 1142.6 580.38 1137.98 579.239 1135.88C578.266 1134.08 578.947 1131.79 580.639 1131.51C581.078 1131.44 582.608 1131.01 583.919 1130.62ZM609.233 1128.11C614.231 1129.65 618.218 1131.1 618.223 1131.25C618.133 1131.38 616.084 1132.33 613.564 1133.3C607.031 1135.88 598.928 1141.47 597.481 1144.41C596.181 1147.04 596.014 1150.58 597.127 1152.78C597.664 1153.77 597.153 1153.56 595.465 1152.07C592.64 1149.52 592.152 1147.14 593.307 1142.03C594.08 1138.73 597.552 1133.16 599.533 1132.09C600.71 1131.45 600.694 1129.06 599.512 1127.62C597.411 1125.07 599.873 1125.18 609.233 1128.11ZM638.317 1120.44L642.257 1120.47L638.792 1123.39C633.581 1127.82 627.093 1128.85 628.227 1125.03C628.965 1122.55 633.652 1120.41 638.317 1120.44ZM622.981 1136.04C629.918 1133.33 634.034 1134.86 635.552 1140.77C636.28 1143.73 636.228 1144.08 633.698 1146.66L631.048 1149.45L628.971 1148.58C627.854 1148.14 625.744 1147.2 624.368 1146.59C622.898 1145.94 619.5 1145.14 616.713 1144.73L611.713 1144.07L612.646 1141.8C613.467 1139.92 614.171 1139.3 616.353 1138.59C617.816 1138.04 620.804 1136.9 622.981 1136.04ZM604.917 1146.31C605.018 1146.5 604.675 1148.53 604.185 1150.87C603.6 1153.19 603.441 1156 603.792 1157.09C604.705 1159.96 604.12 1160.36 602.068 1158.35C600.28 1156.67 600.303 1156.42 601.817 1151.68C603.284 1147.44 604.414 1145.38 604.917 1146.31ZM648.403 1137.73C653.116 1138.3 657.268 1139.01 657.717 1139.25C658.261 1139.51 659.42 1141.21 660.359 1142.94C661.936 1145.85 662.014 1146.29 660.837 1146.93C660.156 1147.3 658.492 1149.4 657.21 1151.62L654.855 1155.7L646.891 1154C642.543 1153.08 638.696 1152.04 638.371 1151.73C637.754 1151.19 640.112 1150.07 649.66 1146.26L653.239 1144.88L650.955 1143.47C648.127 1141.8 644.133 1141.08 641.164 1141.81L638.914 1142.39L639.045 1139.67C639.218 1138.22 639.396 1136.92 639.581 1136.82C639.767 1136.72 643.751 1137.12 648.403 1137.73ZM718.147 1124.68C719.382 1124.9 720.18 1125.18 719.994 1125.28C719.313 1125.65 714.096 1126.08 713.928 1125.77C713.526 1125.03 716.119 1124.34 718.147 1124.68ZM680.97 1166.94C682.144 1169.1 687.834 1174.43 689.065 1174.48C689.413 1174.53 689.031 1172.5 688.223 1169.97C687.353 1167.48 686.679 1165.2 686.731 1164.85C686.72 1164.54 688.869 1163.78 691.462 1163.09C695.962 1161.94 696.31 1161.99 697.469 1163.68C698.56 1165.25 698.486 1165.85 696.809 1168.52C695.793 1170.2 694.315 1174.12 693.503 1177.2C691.889 1183.69 692.436 1188.84 695.247 1192.84C696.769 1195.06 696.847 1195.5 695.846 1195.72C692.494 1196.33 673.573 1201.62 667.931 1203.48C664.376 1204.6 661.097 1205.5 660.653 1205.42C659.541 1205.14 659.137 1196.71 660.153 1193.11C661.509 1188.37 665.32 1184.47 673.657 1179.31L680.886 1174.91L679.061 1170.21C677.381 1166.08 677.36 1165.45 678.485 1165.16C679.486 1164.94 680.131 1165.39 680.97 1166.94ZM707.935 1159.05C713.216 1157.71 713.593 1157.67 714.096 1158.6C714.465 1159.28 713.965 1159.39 711.914 1159.3C710.43 1159.22 707.798 1159.69 706.088 1160.37C704.282 1161.03 702.747 1161.3 702.579 1160.99C702.412 1160.68 702.84 1160.29 703.56 1160.14C704.217 1160.02 706.186 1159.52 707.935 1159.05ZM727.356 1147.89C727.9 1148.15 728.932 1148.88 729.616 1149.55L730.821 1150.73L726.729 1150.87C724.526 1150.94 722.751 1150.62 722.769 1150.21C722.856 1149.04 726.143 1147.42 727.356 1147.89ZM734.839 1156.97C737.616 1157.07 739.868 1157.53 739.884 1158C739.933 1158.53 740.397 1161.16 740.929 1163.92C741.849 1168.87 743.766 1172.55 748.662 1178.63C750.174 1180.54 750.145 1180.63 747.896 1183.13L745.585 1185.67L742.344 1182.94C739.59 1180.66 738.432 1178.97 734.847 1172.5C731.089 1165.57 730.643 1164.45 730.74 1161.67C730.812 1160.03 730.503 1158.28 730.048 1157.88C728.787 1156.88 729.225 1156.81 734.839 1156.97ZM851.892 1130.86C854.856 1131.9 855.215 1132.27 855.726 1134.39C856.02 1135.68 855.995 1136.81 855.685 1136.98C853.193 1137.85 840.087 1139.82 840.038 1139.29C839.932 1138.95 840.912 1136.17 842.106 1133.2L844.352 1127.74L846.463 1128.68C847.647 1129.24 850.106 1130.23 851.892 1130.86ZM802.699 1152.72C803.148 1152.95 803.236 1153.71 803.009 1154.47C802.668 1155.62 802.416 1155.59 801.02 1154.35C799.562 1153.13 799.523 1152.91 800.71 1152.59C801.429 1152.44 802.345 1152.51 802.699 1152.72Z" fill="white"/>
<path d="M1224.04 521.039C1215.42 527.153 1199.9 536.203 1192.07 539.644C1188.19 541.347 1184.9 542.81 1184.84 543.001C1184.81 543.097 1186.19 544.91 1187.96 546.995C1194.19 554.352 1200.97 564.055 1206.88 574.069L1212.89 584.27L1235.74 571.89L1258.58 559.51L1253.08 550.238C1243.94 534.847 1231.93 517.565 1230.12 517.184C1229.77 517.132 1227.02 518.861 1224.04 521.039Z" fill="white"/>
<path d="M594.765 921.378C593.39 922.683 593.303 923.852 594.578 926.205C595.55 928 595.437 928.382 592.189 932.144C588.096 937.006 583.347 944.945 578.898 954.325C577.072 958.197 574.428 963.074 572.922 965.172L570.304 968.913L569.314 991.476C568.489 1011.39 568.582 1014.22 569.836 1015.94C570.626 1016.96 571.478 1017.94 571.73 1017.96C573.353 1018.44 575.799 999.896 576.58 981.531C576.894 973.832 577.311 967.359 577.587 967.129C577.829 966.838 578.18 966.007 578.44 965.305C578.639 964.637 580.463 961.646 582.539 958.679L586.269 953.294L586.179 957.267C585.948 963.64 584.008 982.232 582.14 995.339C580.284 1007.88 580.367 1008.47 583.958 1008.45C585.155 1008.44 585.648 1007.13 587.138 1000.72C589.363 990.784 593.245 952.717 592.419 948.68C591.941 946.616 592.212 944.307 593.225 941.595C594.002 939.332 595.157 936.143 595.763 934.453L596.862 931.455L598.129 934.533C599.814 938.826 600.465 957.616 599.208 969.19C598.62 974.314 597.175 984.949 595.86 992.87C593.888 1004.75 593.218 1007.36 591.918 1008.06C589.936 1009.14 569.729 1038.51 570.266 1039.5C570.501 1039.93 571.499 1040.59 572.521 1041L574.373 1041.76L583.04 1029.37C588.457 1021.63 591.875 1017.3 592.144 1017.79C592.412 1018.29 593.439 1018.85 594.455 1019.1C596.298 1019.55 596.326 1019.45 597.928 1015.46C600.514 1008.85 607.218 950.272 606.244 942.71C606.025 940.827 604.925 936.136 603.851 932.233C602.054 925.517 601.814 924.927 599.275 922.458C597.84 920.993 596.483 919.966 596.236 920.1C596.021 920.296 595.379 920.885 594.765 921.378Z" fill="white"/>
<path d="M1218.9 583.977C1219 584.321 1222.25 590.169 1226.05 597.165L1232.92 609.858L1231.98 614.773C1230.63 621.435 1230.66 624.302 1232.08 624.412C1232.65 624.425 1236.71 623.346 1241.04 622.037C1247.97 619.887 1250.86 618.563 1263.55 611.685C1271.54 607.357 1279.57 602.681 1281.36 601.393L1284.68 598.952L1281.35 597.234C1279.46 596.257 1276.62 595.31 1274.94 595.019L1271.9 594.583L1263.55 579.166L1255.19 563.749L1236.93 573.647C1226.9 579.082 1218.76 583.73 1218.9 583.977Z" fill="white"/>
<path d="M551.19 1010.51C549.626 1025.21 548.508 1037.19 548.694 1037.09C549.561 1036.62 554.971 1022.95 556.464 1017.58C558.145 1011.22 558.852 1005.87 559.373 993.978C559.968 982.362 560.117 983.082 557.408 983.108C556.087 983.183 554.8 983.32 554.552 983.454C554.338 983.65 552.753 995.803 551.19 1010.51Z" fill="white"/>
<path d="M537.545 1087.9C534.981 1092.34 535.106 1098.04 537.989 1102.32L539.416 1104.51L542.913 1093.97L546.41 1083.42L543.698 1084.33C542.202 1084.82 540.486 1085.35 539.924 1085.49C539.328 1085.58 538.262 1086.72 537.545 1087.9Z" fill="white"/>
<path d="M798.761 1017C799.084 1018.19 799.525 1019.15 799.716 1019.21C800.289 1019.38 824.714 1015.68 833.952 1013.95C848.55 1011.33 861.809 1011.11 881.007 1013.28C885.277 1013.77 892.295 1014.46 896.622 1014.76C900.887 1015.09 907.605 1016.25 911.61 1017.29C916.95 1018.72 919.355 1019.02 921.195 1018.42C922.534 1017.94 923.568 1017.78 923.578 1018.09C923.491 1019.26 929.908 1021.79 935.071 1022.6L940.548 1023.39L939.06 1025.08C937.233 1027.03 937.273 1031.09 939.087 1035.48C940.349 1038.4 947.745 1046.72 948.674 1046.22C948.86 1046.12 947.845 1041.14 946.327 1035.24C944.842 1029.39 943.665 1024.27 943.655 1023.95C943.644 1023.64 946.877 1023.25 950.812 1023.12C957.894 1022.88 957.894 1022.88 957.04 1024.71C953.875 1030.99 956.578 1037.45 963.4 1039.84L966.842 1041.02L964.055 1042.53C960.402 1044.51 958.207 1047.7 957.075 1052.56C956.057 1057.04 956.703 1061.33 959.18 1065.76C961.322 1069.56 963.335 1071.36 967.226 1072.77L970.224 1073.87L969.621 1076.6C968.943 1079.93 970.363 1086.69 972.167 1088.84C973.052 1089.88 973.201 1090.6 972.706 1090.87C971.901 1091.3 961.107 1094.59 960.663 1094.51C959.714 1094.38 961.086 1090.12 964.059 1083.78L967.474 1076.48L963.287 1078.51C958.79 1080.71 957.973 1081.71 954.96 1089.75L953.539 1093.48L947.031 1081.47C937.195 1063.17 937.014 1061.51 944.903 1054.19C945.36 1053.7 944.962 1053.12 943.027 1051.76C938.578 1048.73 935.944 1050.08 934.201 1056.47C930.535 1069.51 936.089 1083.16 948.666 1091.88C953.31 1095.13 953.573 1095.47 951.86 1097.04C950.3 1098.44 931.552 1106.12 930.344 1105.81C928.249 1105.35 931.245 1092.99 934.841 1087.36C935.829 1085.78 936.536 1084.28 936.401 1084.03C936.066 1083.41 930.325 1084.2 928.53 1085.17C927.539 1085.71 926.466 1087.57 925.491 1090.5L924.029 1094.9L921.784 1091.79C917.389 1085.6 916.222 1076.94 919.036 1071.49C920.782 1068.06 923.782 1066.36 927.846 1066.32C929.453 1066.33 930.931 1066.25 931.117 1066.15C931.303 1066.05 930.89 1064.99 930.252 1063.81C928.843 1061.21 925.871 1058.98 924.145 1059.19C921.604 1059.53 916.452 1062.88 914.86 1065.26L913.235 1067.59L909.243 1064.06C904.96 1060.3 903.672 1058.51 903.723 1056.24C903.679 1053.94 904.727 1053.21 909.298 1052.34C911.677 1051.85 915.08 1050.89 916.852 1050.17C918.72 1049.48 920.593 1048.94 921.099 1048.99C921.543 1049.07 923.535 1050.23 925.47 1051.59C927.343 1052.97 930.104 1054.52 931.541 1055.1L934.034 1056.16L929.481 1048.05C925.164 1040.38 924.991 1039.91 925.548 1037.69C925.883 1036.38 927.165 1034.17 928.411 1032.77L930.655 1030.11L927.946 1030.14C919.194 1030.4 916.117 1035.51 919.679 1044.15L921.22 1047.88L916.831 1045.69C913.531 1044.04 911.655 1043.53 909.428 1043.86C905.886 1044.42 894.563 1047.91 894.364 1048.58C893.99 1049.66 898.322 1062.53 899.532 1063.88C902.288 1067.19 909.91 1072.83 910.547 1072.09C911.247 1071.31 911.252 1071.47 910.68 1077.06C909.974 1084.33 913.321 1091.25 920.108 1096.38L923.243 1098.77L922.877 1102.97C922.607 1105.28 922.855 1108.99 923.405 1111.33C924.138 1114.46 924.051 1115.63 923.184 1116.1C922.503 1116.47 921.834 1116.27 921.432 1115.53C920.861 1114.48 920.265 1114.56 917.441 1115.85L914.058 1117.44L912.572 1114.4C910.716 1110.68 910.509 1106.31 911.826 1099.43L912.909 1094.03L910.871 1093.38C908.928 1092.75 908.742 1092.85 907.107 1094.86C904.924 1097.48 904.383 1100.18 904.446 1107.83L904.548 1113.78L901.433 1108.18C895.83 1097.84 894.195 1087.44 896.226 1074.48C896.907 1070.27 897.151 1067.17 896.785 1067.53C889.317 1075.18 889.526 1074.83 889.016 1080.39C888.732 1083.27 888.614 1087.34 888.873 1089.44C890.111 1103.1 897.445 1117.23 903.614 1117.97C905.671 1118.22 906.316 1118.67 907.524 1120.9C909.402 1124.37 912.602 1125.84 915.141 1124.46L916.936 1123.49L916.516 1127C915.511 1134.76 918.763 1143.57 924.226 1147.73C926.133 1149.18 928.749 1150.17 932.204 1150.78C935.024 1151.25 937.333 1151.52 937.423 1151.4C937.418 1151.24 935.233 1148.98 932.435 1146.33C925.832 1140.06 923.649 1136.91 923.607 1133.73C923.493 1130.27 926.941 1121.11 928.21 1121.39C928.75 1121.49 930.071 1121.42 931.139 1121.32C933.146 1121.03 933.146 1121.03 931.842 1116.85L930.572 1112.74L934.86 1110.89C937.223 1109.93 940.115 1108.77 941.33 1108.35L943.513 1107.65L942.482 1110.77C941.909 1112.52 941.605 1116.69 941.781 1120.12C942.053 1125.5 942.381 1126.84 944.595 1130.93C947.615 1136.5 950.167 1138.4 957.293 1140.47C959.933 1141.2 962.296 1142.16 962.531 1142.6C962.866 1143.22 966.434 1141.52 979.375 1134.51L995.782 1125.62L994.273 1122.83L992.763 1120.05L983.228 1125.21C972.083 1131.25 973.572 1131.49 967.786 1122.29C964.193 1116.55 963.308 1113.58 964.918 1112.71C965.351 1112.47 968.037 1112.7 970.953 1113.2C973.868 1113.71 975.857 1113.83 975.403 1113.43C971.669 1110.09 962.393 1101.1 962.416 1100.85C962.563 1100.53 978.78 1095.43 979.134 1095.63C979.229 1095.66 979.936 1096.08 980.677 1096.56C981.866 1097.28 981.962 1097.31 981.487 1096.28C981.118 1095.6 981.412 1094.96 982.402 1094.42C984.693 1093.18 985.158 1093.89 985.476 1098.77C985.965 1104.99 988.646 1110.82 992.863 1114.47C995.587 1116.83 1008.62 1122.99 1008.99 1122.06C1008.99 1121.91 1007.19 1119.92 1004.88 1117.73C993.754 1107.1 989.447 1097.82 993.551 1093.27C995.8 1090.77 1003.3 1086.87 1005.85 1086.85C1007.05 1086.84 1008.85 1087.06 1009.87 1087.47C1011.75 1088.13 1011.75 1088.13 1009.83 1089.17C1008.41 1089.94 1007.48 1091.33 1006.58 1093.82C1004.1 1100.77 1008.51 1113.04 1015.32 1118.07L1018.55 1120.49L1015.55 1124.84C1008.18 1135.48 1000.39 1141.07 969.863 1157.61C954.665 1165.92 947.721 1169.36 945.657 1169.84C942.744 1170.38 942.806 1170.35 946.75 1168.61C964.077 1160.82 992.227 1144.93 998.69 1139.26C1000.56 1137.69 1002.86 1132.76 1002.28 1131.71C1001.95 1131.09 996.653 1131.96 994.919 1132.9C993.681 1133.57 993.142 1133.46 992.179 1131.98L990.987 1130.22L981.049 1136.57C969.845 1143.68 958.306 1150.17 953.732 1151.93L950.649 1153.04L947.011 1149.72C941.455 1144.65 938.247 1138.13 937.565 1130.81C937.242 1127.71 936.872 1125.1 936.681 1125.05C936.552 1124.96 935.479 1126.82 934.326 1129.13C931.484 1134.67 931.619 1138.76 934.806 1144.64C937.39 1149.41 940.215 1151.97 944.875 1153.77C947.014 1154.61 947.468 1155 946.725 1155.41C945.982 1155.81 946.07 1156.56 947.11 1158.48L948.519 1161.08L943.95 1163C935.718 1166.58 932.743 1167.15 929.735 1165.73C923.818 1163.09 920.319 1158.26 918.806 1150.59C918.313 1148.05 917.706 1145.9 917.515 1145.84C916.847 1145.65 914.149 1149.83 913.292 1152.54L912.46 1154.99L906.974 1151.08C898.515 1144.93 895.635 1139.76 897.131 1133.5C897.636 1131.63 898.683 1128.98 899.524 1127.72C900.845 1125.72 900.914 1124.96 900.008 1123.29C898.935 1121.31 898.777 1121.32 896.487 1122.56C893.143 1124.37 891.902 1125.92 890.716 1130.09C889.161 1135.5 889.626 1140.05 892.349 1145.22C895.508 1151.2 899.833 1154.3 907.707 1156.12C912.437 1157.17 913.525 1157.7 914.044 1159.1C914.651 1161.25 918.803 1165.81 922.88 1169.05C924.658 1170.41 926.211 1171.65 926.245 1171.71C926.278 1171.77 925.646 1172.67 924.829 1173.68C923.588 1175.23 923.598 1175.55 924.7 1175.51C925.773 1175.57 926.233 1176.12 926.896 1178.09C927.66 1180.23 928.019 1180.6 929.592 1180.55C930.975 1180.44 931.138 1180.59 930.333 1181.03C928.695 1182 929.474 1182.7 932.312 1182.76C935.437 1182.91 952.28 1174.82 981.234 1159.37C998.513 1150.17 1002.13 1147.97 1006.27 1144.53C1012.89 1139.01 1019.53 1131.9 1024.68 1124.7C1028.36 1119.66 1029.01 1118.35 1028.78 1116.15C1028.31 1111.44 1027.5 1110.84 1024.28 1112.58C1022.17 1113.72 1021.17 1114.83 1020.17 1116.97L1018.88 1119.91L1017.97 1117.2C1017.54 1115.67 1016.12 1111.72 1014.88 1108.38C1012.04 1100.79 1011.93 1098.21 1014.5 1095.13C1017.35 1091.67 1018.75 1091.15 1019.76 1093C1020.93 1095.17 1026.85 1099.89 1030.99 1102.06L1034.52 1103.83L1034.12 1106.21C1033.98 1107.57 1034.35 1110.33 1035.02 1112.45C1036.65 1117.81 1040.08 1121.64 1045.59 1124.26L1049.85 1126.36L1045.19 1118.07C1042.35 1112.96 1040.55 1109.21 1040.58 1108.23C1040.57 1106.88 1040.79 1106.84 1043.55 1108.23C1046.88 1109.95 1046.94 1109.75 1043.93 1107.3C1040.95 1104.91 1040.7 1104.16 1041.96 1102.2C1043.31 1100.11 1042.97 1099.49 1039.84 1098.14C1037.35 1097.09 1037.35 1097.09 1036.69 1098.97C1036.31 1100.05 1035.83 1100.79 1035.55 1100.71C1035.26 1100.62 1033.67 1099.32 1031.95 1097.77C1025.85 1092.27 1024.17 1086.37 1026.47 1078.79C1027.64 1074.88 1027.6 1074.66 1025.93 1073.8C1023.3 1072.34 1019.25 1072.85 1015.04 1075.14L1011.27 1077.18L1010.82 1075.02C1010.11 1071.8 1010.51 1067.66 1011.84 1064.05C1012.88 1061.09 1013.22 1060.83 1017.34 1058.83L1021.71 1056.7L1020.94 1054.4C1020.38 1052.62 1019.89 1052 1018.69 1051.86C1017.39 1051.68 1016.92 1050.97 1015.29 1047.21C1010.74 1036.3 1012.17 1029.19 1020.13 1023.04C1021.42 1022.02 1022.58 1020.91 1022.54 1020.53C1022.59 1020.18 1021.03 1019.83 1019.08 1019.76C1012.96 1019.56 1009.49 1022.32 1006.96 1029.62C1004.36 1036.95 1006.54 1046.74 1011.66 1050.86C1012.92 1051.86 1013.99 1052.8 1014.06 1052.92C1014.13 1053.05 1013.14 1053.74 1011.84 1054.44C1008.5 1056.26 1004.9 1061.73 1004.01 1066.46C1003.58 1068.77 1003.58 1072.61 1004.12 1075.37C1004.92 1079.82 1004.84 1080.26 1003.2 1081.07C1001.53 1081.98 989.558 1085.9 981.756 1088.21C977.982 1089.37 977.752 1089.09 976.521 1083.27C974.85 1075.61 978.178 1069.48 986.412 1065.02C989.57 1063.31 989.936 1062.95 988.819 1062.51C985.849 1061.32 979.864 1061.36 977.511 1062.63C974.972 1064.01 971.949 1067.89 971.431 1070.33C971.163 1071.76 971.039 1071.83 970.064 1070.91C969.48 1070.43 967.757 1067.84 966.28 1065.11C961.158 1055.96 962.537 1050.96 971.608 1045.09L976.421 1042L974.241 1041.82C970.229 1041.51 961.781 1031.83 962.946 1028.96C963.207 1028.25 964.301 1027.02 965.438 1026.16C967.652 1024.48 967.698 1023.98 965.851 1023.38C964.8 1023.07 970.833 1022.52 972.04 1022.83C972.326 1022.91 972.1 1023.68 971.658 1024.64C970.624 1026.72 970.656 1031.51 971.75 1034.12C972.878 1036.79 976.927 1042.04 977.905 1042.08C978.315 1042.09 979.492 1041.46 980.443 1040.7L982.223 1039.25L979.689 1035.02C977.39 1031.22 977.212 1030.6 977.864 1028.4C978.687 1025.63 981.063 1024.11 985.639 1023.39C989.716 1022.78 990.673 1022.18 991.034 1019.74L991.405 1017.62L999.354 1016.92C1015.47 1015.47 1040.84 1012.62 1045.79 1011.7C1050.55 1010.88 1050.71 1010.88 1048.57 1012.11C1044.67 1014.23 1042.92 1017.34 1042.5 1022.93C1041.8 1032.28 1044.62 1039.56 1051.72 1046.45C1056.24 1050.81 1056.27 1050.71 1052.42 1040.94C1049.08 1032.42 1048.23 1026.56 1049.5 1021.22C1050.69 1016.17 1054.29 1009.81 1056.71 1008.5C1058.07 1007.77 1061.88 1007.55 1071.33 1007.55L1074.29 1007.55L1073.41 1010.35C1071.29 1016.78 1072.91 1021.99 1078.31 1026.35C1081.81 1029.26 1081.96 1028.94 1080.02 1021.82C1078.01 1014.26 1080.24 1009.37 1087.43 1005.48C1090.46 1003.83 1092.34 1003.45 1100.74 1002.99C1107.88 1002.56 1111.48 1001.97 1114.28 1000.78C1117.48 999.444 1120.96 999.077 1133.93 998.619C1152.06 997.927 1162.06 998.196 1173.07 999.755C1177.31 1000.34 1182.47 1000.99 1184.47 1001.27C1186.46 1001.55 1188.49 1002.05 1188.91 1002.38C1190.28 1003.57 1188.31 1010.72 1185.59 1014.44C1180.92 1020.73 1178.74 1025.44 1175.18 1036.9C1172.05 1047.09 1171.46 1048.21 1169.91 1048.32C1168.66 1048.36 1166.78 1049.62 1162.94 1052.74C1155.73 1058.65 1154.14 1060.31 1149.1 1066.81C1145.92 1070.86 1144.94 1072.59 1145.56 1073.14C1145.98 1073.47 1146.89 1074.42 1147.51 1075.12C1148.13 1075.82 1148.94 1076.27 1149.18 1076.14C1149.49 1075.97 1152.24 1073.2 1155.38 1069.98C1161.35 1063.86 1170.08 1056.16 1170.84 1056.39C1171.07 1056.51 1171.8 1058.6 1172.38 1061L1173.48 1065.54L1175.54 1065.94L1177.66 1066.31L1180.14 1060.4C1181.58 1057.14 1183.44 1052.45 1184.24 1049.93C1186.62 1042.79 1186.62 1042.79 1196.92 1037.85C1201.88 1035.48 1207.77 1032.3 1209.92 1030.81C1213.5 1028.39 1213.95 1027.74 1214.73 1024.76C1215.21 1022.82 1215.5 1021.14 1215.36 1020.89C1214.86 1019.96 1206.47 1017.78 1204.18 1017.98L1201.66 1018.22L1204.78 1012.29C1213.07 996.263 1211.51 993.825 1192.43 993.351C1186.82 993.19 1180.28 992.806 1177.84 992.445C1160.78 990.077 1142.17 990.469 1114.3 993.72C1093.02 996.28 1073.96 999.24 1055.76 1002.77C1046.78 1004.51 1034.33 1006.37 1028.02 1006.99C1021.77 1007.58 1008.05 1009.32 997.673 1010.86C987.328 1012.46 974.082 1014.03 968.326 1014.35C962.604 1014.72 955.026 1015.23 951.507 1015.53C943.997 1016.16 937.557 1015.8 931.901 1014.38C929.677 1013.82 927.12 1013.69 926.186 1014.03C925.128 1014.45 921.325 1013.78 915.794 1012.3C883.457 1003.47 848.027 1003.12 811.395 1011.2C805.389 1012.53 799.888 1013.91 799.269 1014.24C798.526 1014.65 798.304 1015.57 798.761 1017ZM954.859 1103.9C955.427 1103.91 956.464 1104.79 957.282 1105.71C958.431 1107.09 958.529 1108.16 958.003 1111.33C957.23 1116.55 957.868 1119.65 960.727 1124.19C962.557 1127.12 963.891 1128.4 966.781 1130.04L970.411 1132.16L966.572 1134.24C961.805 1136.82 960.306 1138.2 960.735 1139.72C961.264 1141.44 954.126 1133.29 951.233 1128.69C948.877 1125.09 948.598 1124.28 948.42 1119.81C948.332 1117.13 948.658 1112.71 949.166 1109.95C949.904 1105.55 950.259 1104.87 951.975 1104.34C952.971 1103.96 954.32 1103.79 954.859 1103.9ZM1019.03 1081.31C1019.26 1081.74 1019.29 1082.68 1019 1083.32C1018.59 1084.35 1018.21 1084.39 1017.18 1083.67C1015.31 1082.44 1015.28 1082.22 1017.01 1081.28C1017.94 1080.77 1018.76 1080.81 1019.03 1081.31ZM1200.2 1002.67C1200.46 1002.85 1199.97 1004.16 1199.01 1005.64C1197.09 1008.61 1196.65 1008.53 1197.49 1005.35C1198.08 1003.19 1199.18 1002.11 1200.2 1002.67ZM1203.3 1026.71C1205.64 1026.16 1205.64 1026.16 1202.36 1027.94C1200.5 1028.94 1197.43 1030.21 1195.46 1030.72L1191.99 1031.71L1193.87 1028.53L1195.79 1025.41L1198.31 1026.37C1199.68 1026.83 1201.92 1026.98 1203.3 1026.71Z" fill="white"/>
<path d="M805.926 1024.01C805.908 1024.42 806.197 1025.55 806.672 1026.57C807.363 1028.44 807.521 1028.44 814.662 1027.13C834.737 1023.38 854.515 1023.07 895.131 1025.9C902.205 1026.39 907.948 1026.64 907.943 1026.48C908.252 1024.39 908.36 1021.93 908.193 1021.62C907.857 1021 878.475 1018.66 869.68 1018.54C850.797 1018.28 820.812 1018.67 816.859 1019.21C812.783 1019.82 805.98 1022.78 805.926 1024.01Z" fill="white"/>
<path d="M826.928 1032.18C826.592 1033.48 826.838 1034.23 827.545 1034.65C828.184 1034.94 847.886 1036.12 871.431 1037.3L914.196 1039.35L914.619 1036.88L915.075 1034.47L902.275 1033.32C891.054 1032.27 836.272 1028.88 831.517 1028.97C828.965 1028.99 827.423 1029.99 826.928 1032.18Z" fill="white"/>
<path d="M845.079 1045.57C844.873 1046.96 844.819 1048.19 845.01 1048.25C845.201 1048.31 851.543 1049.52 859.154 1051L872.95 1053.7L873.806 1050.99C874.606 1048.47 874.601 1048.32 873.011 1047.9C869.512 1046.91 846.268 1042.44 845.835 1042.68C845.587 1042.81 845.252 1044.11 845.079 1045.57Z" fill="white"/>
<path d="M849.677 1057.01C849.778 1057.2 853.238 1059.89 857.343 1063.03C861.415 1066.11 864.875 1068.8 864.909 1068.86C864.976 1068.99 864.114 1069.62 862.938 1070.25C858.542 1072.63 858.13 1079.27 862.161 1083.01C865.804 1086.48 871.421 1087.68 876.95 1086.21C878.761 1085.71 878.851 1085.58 877.775 1084.48C875.791 1082.59 873.507 1081.19 870.055 1079.69C868.298 1078.96 866.626 1077.95 866.357 1077.45C865.686 1076.21 867.334 1071.71 868.526 1071.55C869.814 1071.41 869.694 1065.87 868.386 1063.46C866.138 1059.31 859.888 1055.16 856.078 1055.23C853.56 1055.31 849.375 1056.46 849.677 1057.01Z" fill="white"/>
<path d="M646.944 1169.03C643.198 1172.02 641.467 1175.92 641.695 1180.93C641.814 1184.55 642.171 1185.8 643.856 1188.17C647.853 1193.77 648 1193.45 648.999 1179.77C649.462 1172.79 649.81 1167.08 649.652 1167.08C649.461 1167.03 648.262 1167.92 646.944 1169.03Z" fill="white"/>
<path d="M879.186 1054.56C877.951 1056.27 876.669 1058.49 876.447 1059.41C876.06 1061.06 876.528 1068.58 876.972 1068.66C877.13 1068.65 878.107 1068.68 879.147 1068.68C880.878 1068.62 881.116 1068.17 883.101 1061.49C885.12 1054.87 885.162 1054.21 883.755 1052.65C882.052 1050.69 882.176 1050.62 879.186 1054.56Z" fill="white"/>
<path d="M827.39 1086.39C826.443 1087.3 825.138 1089.77 824.481 1091.81C823.71 1094.23 823.111 1095.2 822.742 1094.52C821.836 1092.84 819.58 1101.84 820.071 1105.26C820.699 1109.96 824.275 1115.23 829.206 1118.57C831.366 1120.04 832.971 1120.93 832.798 1120.47C830.875 1116.62 828.508 1108.85 828.565 1106.74C828.731 1101.28 830.077 1094.31 831.297 1092.12C832.223 1090.58 833.755 1089.27 836.232 1087.93L839.823 1085.98L838.115 1083.86C837.196 1082.76 836.407 1081.75 836.311 1081.72C835.671 1081.42 828.67 1085.06 827.39 1086.39Z" fill="white"/>
<path d="M712.339 1170.28C708.622 1173.18 707.66 1175.54 707.826 1180.58C707.955 1184.51 708.373 1185.73 711.086 1190.58C712.73 1193.62 714.683 1196.48 715.424 1196.96C716.518 1197.65 716.688 1197.08 716.757 1192.48C716.782 1189.42 716.335 1186.38 715.664 1185.14C714.255 1182.54 714.02 1176.34 715.084 1171.36C715.551 1169.26 715.752 1167.71 715.442 1167.88C715.166 1168.11 713.753 1169.19 712.339 1170.28Z" fill="white"/>
<path d="M989.024 1025.64C983.769 1031.61 982.104 1044.21 985.661 1050.77C988.009 1055.1 993.537 1062.2 993.82 1061.25C993.934 1060.86 993.278 1058.18 992.398 1055.37C987.842 1040.46 989.979 1031.69 1000.58 1021.7C1005.05 1017.52 1003.93 1017.24 996.518 1020.7C992.579 1022.59 990.602 1023.82 989.024 1025.64Z" fill="white"/>
<path d="M878.059 1096.82C872.796 1103.52 874.517 1117.48 881.058 1121.87C883.089 1123.25 886.881 1123.6 890.795 1122.84C892.454 1122.5 892.421 1122.44 888.55 1119.73C881.942 1115.22 880.705 1111.17 882.546 1100.08C883.837 1092.41 883.842 1092.57 881.49 1093.84C880.409 1094.51 878.814 1095.85 878.059 1096.82Z" fill="white"/>
<path d="M1022.4 1023.97C1019.84 1027.37 1018.28 1031.89 1018.33 1036.11C1018.35 1039.55 1021.57 1046.53 1024.51 1049.58L1026.07 1051.14L1026.1 1049.12C1026.1 1047.2 1026.1 1047.2 1026.81 1049.54C1028.04 1053.6 1032.79 1061.76 1034.96 1063.55C1036.09 1064.45 1037.96 1065.68 1039.17 1066.31C1041.19 1067.37 1041.23 1067.44 1041.69 1070.95C1042.41 1076.41 1045.64 1081.79 1050.76 1086.06C1053.09 1088 1055.03 1089.35 1055.08 1089.16C1055.14 1088.97 1053.85 1085.26 1052.17 1080.97C1050.51 1076.58 1049.1 1071.9 1049.02 1070.42C1048.83 1067.72 1051.37 1063.54 1054 1062.04C1056.29 1060.79 1055.63 1059.87 1051.66 1058.9C1048.45 1058.15 1047.54 1058.25 1045.72 1059.47C1044.59 1060.33 1043.33 1061.41 1042.91 1061.96C1041.88 1063.32 1040.47 1061.76 1036.75 1054.88C1034.2 1050.18 1033.71 1048.68 1033.57 1045.32C1033.49 1043.11 1033.73 1040.58 1034.07 1039.6C1034.68 1037.91 1034.61 1037.78 1032.71 1036.65C1031.56 1035.99 1030.44 1035.56 1030.13 1035.72C1029.45 1036.09 1027.58 1039.43 1026.68 1041.92L1025.93 1043.93L1025.65 1040.16C1024.99 1032.58 1025.55 1031.4 1033.12 1024.09C1035.93 1021.45 1036.02 1021.16 1034.82 1020.29C1032.86 1019.03 1028.51 1018.98 1026.34 1020.16C1025.35 1020.69 1023.58 1022.45 1022.4 1023.97Z" fill="white"/>
<path d="M722.962 1187.67C719.681 1193.29 720.694 1201.08 725.757 1209.38C728.426 1213.87 729.502 1214.96 733.238 1217.43L737.49 1220.25L736.28 1216.98C735.526 1215.14 733.66 1211.11 732.016 1208.08C727.007 1198.54 726.761 1193.94 730.924 1188.32C733.457 1184.87 733.055 1184.13 728.676 1184.17C725.748 1184.24 724.481 1185.01 722.962 1187.67Z" fill="white"/>
<path d="M1063.61 1022.87C1062.58 1024.95 1062.59 1028.07 1063.67 1031.4C1064.41 1033.65 1064.21 1034.16 1062.25 1036.02C1058.89 1039.12 1057.22 1043.15 1056.58 1049.5C1055.6 1058.93 1057.96 1062.69 1067.22 1066.33L1069.58 1067.29L1066.31 1061.85C1062.15 1055.06 1061.93 1052.29 1064.69 1043.19L1066.68 1036.66L1068.83 1038.86C1070.24 1040.26 1072.8 1041.6 1076.14 1042.59C1081.26 1044.06 1081.26 1044.06 1080.28 1045.64C1079.67 1046.44 1078.86 1049.68 1078.37 1052.76C1077.58 1057.67 1076.88 1059.33 1072.51 1066.18C1065.68 1076.93 1058.62 1089.49 1058.01 1092.06C1056.96 1096.32 1057.5 1099.54 1060.09 1104.47L1062.61 1109.27L1059.76 1109.62C1055.58 1110.04 1052.42 1112.63 1051.22 1116.48C1048.29 1125.84 1052.7 1133.39 1061.04 1133.27C1062.3 1133.23 1063.34 1133.07 1063.39 1132.88C1063.45 1132.69 1062.23 1131.18 1060.73 1129.44C1056.01 1124.14 1056.06 1118.91 1060.97 1112.88L1063.27 1110.04L1065.05 1111.4C1067.64 1113.52 1073.28 1114.46 1078.49 1113.73C1084.1 1112.85 1085.97 1113.2 1087.14 1115.36C1088.05 1117.03 1093.37 1119.92 1094.52 1119.37C1094.89 1119.17 1095.52 1118.27 1096 1117.37C1096.8 1115.74 1096.7 1115.55 1094.48 1113.39L1092.17 1111.04L1094.58 1109.73C1097.37 1108.22 1097.33 1108 1094.42 1106.77C1093.24 1106.21 1092.46 1105.67 1092.74 1105.44C1092.92 1105.18 1097.19 1102.71 1102.16 1099.77L1111.13 1094.59L1112 1096.2C1113.17 1098.21 1117.37 1101.38 1119.56 1101.88C1120.48 1102.1 1122.66 1102.28 1124.4 1102.38L1127.49 1102.47L1125.78 1100.35C1124.86 1099.09 1122.84 1097.14 1121.29 1095.9C1117.92 1093.24 1117.13 1091.03 1118.58 1088.39C1119.65 1086.37 1127.87 1079.52 1128.86 1079.86C1129.14 1079.95 1131.93 1082.12 1134.97 1084.64C1138.02 1087.15 1140.89 1089.36 1141.27 1089.47C1141.63 1089.68 1142.61 1088.83 1143.42 1087.67C1144.53 1086.03 1144.64 1085.33 1143.76 1084.44C1139.8 1080.1 1137.72 1077.3 1137.95 1076.54C1138.09 1076.06 1139.03 1074.83 1140.09 1073.69L1141.95 1071.65L1139.04 1070.58C1135.73 1069.49 1133.52 1070.29 1130.73 1073.72C1129.1 1075.73 1128.79 1075.89 1125.86 1075.96C1121.58 1076.04 1118.15 1078.14 1112.27 1084.13C1109.46 1086.93 1106.65 1089.57 1105.97 1089.94C1104.6 1090.68 1081.06 1092.31 1080.72 1091.69C1080.62 1091.5 1082.44 1088.51 1084.82 1085.06C1088.09 1080.17 1088.71 1078.79 1087.73 1078.76C1085.49 1078.77 1079.45 1081.65 1077.99 1083.4C1076.54 1085.15 1076.06 1089.01 1077.04 1090.8C1077.44 1091.55 1077.2 1091.99 1076.26 1092.18C1074.08 1092.73 1082.71 1097.42 1086.5 1097.77C1090.17 1098.18 1096.96 1095.94 1101.4 1092.9C1104.27 1090.95 1103.91 1091.46 1098.07 1097.83C1091.59 1104.94 1091.53 1104.98 1089.8 1104.31C1088.69 1103.87 1087.4 1104.01 1085.91 1104.82C1082.69 1106.56 1075.94 1107.26 1072.22 1106.31C1069.33 1105.55 1068.75 1105.07 1067.27 1102.34C1064.08 1096.46 1065.52 1092.32 1077.03 1074.39C1084.79 1062.25 1087.08 1057.01 1086.93 1051.56C1086.85 1048.16 1084.06 1041.98 1082.41 1041.44C1080.43 1040.75 1072.07 1032.86 1070.76 1030.45C1069.59 1028.28 1069.56 1027.33 1070.48 1024.59C1071.01 1022.78 1071.81 1021.15 1072.12 1020.98C1073.36 1020.31 1071.98 1019.69 1069.4 1019.81C1065.98 1019.98 1064.74 1020.66 1063.61 1022.87Z" fill="white"/>
<path d="M775.745 1185.9C771.972 1190.91 771.883 1200.65 775.612 1207.68C777.764 1211.8 782.298 1216.47 783.537 1215.8C784.032 1215.53 782.723 1209.27 781.159 1203.87C778.747 1195.73 779.67 1191.22 784.745 1187.43C787.606 1185.32 787.355 1184.42 783.684 1182.96C780.714 1181.77 778.193 1182.73 775.745 1185.9Z" fill="white"/>
<path d="M755.61 1199.29C753.433 1202.08 753.405 1206.02 755.553 1209.98C756.526 1211.77 757.976 1213.71 758.75 1214.25C760.523 1215.46 765.048 1217.01 765.729 1216.64C765.977 1216.5 765.42 1214.88 764.508 1213.06C763.569 1211.32 762.346 1208.62 761.855 1207.12C760.941 1204.26 761.359 1203.55 766.689 1198.9L768.283 1197.55L765.925 1196.75C763.567 1195.94 759.379 1196.05 757.893 1196.86C757.493 1197.15 756.395 1198.23 755.61 1199.29Z" fill="white"/>
<path d="M827.254 1162.56C825.087 1167.57 827.284 1175.92 832.226 1181.49C833.666 1183.11 835.1 1184.58 835.454 1184.78C836.323 1185.35 835.443 1178.7 833.855 1173.56C832.118 1167.69 832.422 1165.44 835.187 1163.3C837.401 1161.62 837.396 1161.47 836.154 1159.17L834.846 1156.76L831.502 1158.57C829.088 1159.88 827.989 1160.96 827.254 1162.56Z" fill="white"/>
<path d="M812.953 1179.92C807.833 1186.14 810.81 1199.02 818.646 1204.47C820.357 1205.7 823.747 1207.23 826.134 1207.94C830.015 1209.04 830.391 1208.99 829.344 1207.8C818.57 1195.46 817.081 1193.3 817.057 1189.71C816.974 1187.19 819.672 1183 823.052 1180.37C824.156 1179.45 825.007 1178.51 824.873 1178.26C824.408 1177.56 818.188 1177.16 816.225 1177.82C815.133 1178.18 813.652 1179.14 812.953 1179.92Z" fill="white"/>
<path d="M1114.53 1021.95C1113.79 1023.23 1113.09 1025.05 1113 1026.06C1112.91 1027.07 1112.49 1027.94 1112.08 1027.92C1111.67 1027.9 1112.37 1029.93 1113.62 1032.37C1115.51 1036.16 1116.36 1037.14 1118.61 1038.48C1121.08 1039.94 1130.8 1042.36 1131.09 1041.57C1131.12 1041.31 1129.39 1039.61 1127.18 1037.6C1125.01 1035.65 1123.12 1033.95 1123.02 1033.77C1122.95 1033.64 1123.89 1033.45 1125.25 1033.44C1126.51 1033.4 1128.23 1033.03 1129.1 1032.56C1131.26 1031.38 1133.33 1025.3 1132.52 1022.61C1131.43 1019.12 1128.31 1016.32 1125.28 1016.2C1121.71 1015.97 1116.26 1018.93 1114.53 1021.95Z" fill="white"/>
<path d="M878.591 1153.24C876.726 1156.89 876.815 1163.41 878.893 1168.13C880.808 1172.7 883.605 1175.35 889.307 1178.19L893.023 1180.02L889.095 1173.66C886.997 1170.23 884.816 1166.21 884.393 1164.83C883.44 1161.74 884.59 1156.48 887.324 1151.47L889.408 1147.78L886.957 1147.99C883.314 1148.36 880.105 1150.42 878.591 1153.24Z" fill="white"/>
<path d="M843.202 1175.14C838.734 1181.08 837.747 1186.51 839.822 1194.03C841.725 1201.09 846.05 1206.12 854.338 1210.92L856.683 1212.29L851.656 1203.16C845.488 1191.92 844.504 1187.89 845.352 1178.22C845.704 1174.58 845.921 1171.58 845.859 1171.62C845.797 1171.65 844.59 1173.27 843.202 1175.14Z" fill="white"/>
<path d="M866.112 1166.57C861.644 1172.51 862.066 1180.54 867.171 1190.1C870.794 1196.79 873.821 1199.72 880.602 1202.77C883.066 1203.92 885.171 1204.7 885.228 1204.51C885.318 1204.38 883.907 1202.66 882.175 1200.8C880.018 1198.44 877.499 1194.68 874.58 1189.29C869.777 1180.28 868.91 1176.91 869.177 1167.79C869.246 1165.11 869.145 1163 868.897 1163.14C868.65 1163.27 867.409 1164.83 866.112 1166.57Z" fill="white"/>
<path d="M1155.6 1017.32L1154.56 1020.28L1158.8 1021.59L1163.03 1022.9L1165.79 1019.72C1167.34 1018 1168.7 1016.22 1168.88 1015.81C1169.13 1014.95 1158.77 1013.27 1157.47 1013.98C1156.98 1014.25 1156.18 1015.72 1155.6 1017.32Z" fill="white"/>
<path d="M901.9 1171.13C899.795 1174.19 900.015 1177.99 902.632 1182.82C905.316 1187.78 908.137 1190.17 913.145 1192.03L916.177 1193.19L913.952 1188.78C912.643 1186.37 910.006 1180.91 907.91 1176.6C904.015 1168.38 903.886 1168.29 901.9 1171.13Z" fill="white"/>
<path d="M1023.88 1128.1C1021.77 1130.12 1020.14 1135.97 1020.65 1139.14C1021.49 1143.49 1024.59 1145.81 1030.73 1146.65L1034.56 1147.06L1031.27 1143.8C1029.47 1141.97 1027.79 1139.6 1027.41 1138.6C1026.67 1136.2 1028.35 1132.65 1032.24 1128.3C1034 1126.38 1035.08 1124.67 1034.82 1124.49C1034.02 1124.05 1027.66 1125.17 1026.46 1125.9C1025.9 1126.2 1024.77 1127.22 1023.88 1128.1Z" fill="white"/>
<path d="M1031.79 1135.02C1031.18 1138.48 1030.81 1141.48 1030.94 1141.73C1031.08 1141.98 1032.41 1142.37 1033.97 1142.57L1036.72 1142.93L1037.45 1139.4C1037.86 1137.5 1038.36 1134.43 1038.55 1132.56L1038.95 1129.3L1036.35 1128.79C1034.86 1128.55 1033.5 1128.41 1033.25 1128.54C1033 1128.68 1032.34 1131.6 1031.79 1135.02Z" fill="white"/>
</svg>
